<svg width="215" height="80" viewBox="0 0 215 80" fill="none" xmlns="http://www.w3.org/2000/svg">
<path fill-rule="evenodd" clip-rule="evenodd" d="M80.9487 0L63.2545 22.1951L73.268 34.2702L65.8641 22.4033L82.303 1.96425H124.581L140.921 22.0955L133.428 34.2702L143.393 21.9869L125.481 0H80.9487Z" fill="white"/>
<path fill-rule="evenodd" clip-rule="evenodd" d="M80.9191 16.7641H93.9575L87.4432 8.59033L80.9191 16.7641Z" fill="white"/>
<path fill-rule="evenodd" clip-rule="evenodd" d="M88.6195 8.24609L95.4204 16.7639L102.211 8.24609H88.6195Z" fill="white"/>
<path fill-rule="evenodd" clip-rule="evenodd" d="M104.584 8.24609L111.375 16.7639L118.166 8.24609H104.584Z" fill="white"/>
<path fill-rule="evenodd" clip-rule="evenodd" d="M80.9487 0L63.2545 22.1951L73.268 34.2702L65.8641 22.4033L82.303 1.96425H124.581L140.921 22.0955L133.428 34.2702L143.393 21.9869L125.481 0H80.9487Z" fill="white"/>
<path fill-rule="evenodd" clip-rule="evenodd" d="M112.601 16.8362H125.876L119.243 8.51758L112.601 16.8362Z" fill="white"/>
<path fill-rule="evenodd" clip-rule="evenodd" d="M112.344 17.895L105.81 31.7624L125.857 17.895H112.344Z" fill="white"/>
<path fill-rule="evenodd" clip-rule="evenodd" d="M96.6364 17.895L103.398 31.5814L110.159 17.895H96.6364Z" fill="white"/>
<path fill-rule="evenodd" clip-rule="evenodd" d="M81.0179 17.895L101.065 31.7624L94.5308 17.895H81.0179Z" fill="white"/>
<path fill-rule="evenodd" clip-rule="evenodd" d="M103.368 46.318L125.807 18.2845L104.159 42.4619L103.368 34.2791L102.459 42.5615L80.6522 18.1216L103.368 46.318Z" fill="white"/>
<path fill-rule="evenodd" clip-rule="evenodd" d="M112.265 63.4082L103.338 76.642L94.2343 63.4173H0V65.2005H93.2457L103.279 79.9368L113.5 65.1824H215V63.4082H112.265Z" fill="white"/>
<path fill-rule="evenodd" clip-rule="evenodd" d="M103.398 8.51758L110.031 16.8362H96.7648L103.398 8.51758Z" fill="white"/>
<path fill-rule="evenodd" clip-rule="evenodd" d="M22.6566 43.956H22.1425C21.7669 43.956 21.4802 44.0012 21.2727 44.1008C21.0651 44.2004 20.897 44.3724 20.7685 44.6349C20.64 44.8974 20.5214 45.3138 20.4127 45.875L17.3878 60.6113H14.7881L12.5046 51.0164C12.4058 50.591 12.3267 49.9483 12.2674 49.0974C12.2674 49.6858 12.1982 50.3013 12.0697 50.9621L10.063 60.6113H7.54232L4.16162 45.5491C4.05289 45.0603 3.9145 44.6982 3.74645 44.4719C3.57841 44.2456 3.3807 44.1008 3.16323 44.0465C2.93588 43.9922 2.61956 43.956 2.20438 43.956H1.88806V42.0913H9.24254V43.956H9.0053C8.25404 43.956 7.85864 44.2456 7.8191 44.834C7.8191 44.9698 7.83887 45.1418 7.86852 45.3319C7.90806 45.522 7.92783 45.6577 7.93772 45.712L9.54898 53.922C9.62806 54.2932 9.68737 54.8544 9.74668 55.6238C9.81588 54.7186 9.8653 54.1755 9.90484 53.9854L12.3366 42.0913H13.9478L16.7453 53.7591C16.854 54.1302 16.9331 54.7005 16.9825 55.4609C16.9825 55.1078 17.032 54.619 17.1407 53.9854L18.752 45.3771C18.7816 45.2323 18.8113 45.0151 18.8706 44.7254C18.8706 44.3905 18.7717 44.1823 18.5839 44.0918C18.3862 44.0012 18.1292 43.956 17.8129 43.956H17.1802V42.0913H22.6467V43.956H22.6566Z" fill="white"/>
<path fill-rule="evenodd" clip-rule="evenodd" d="M35.0129 51.2423C35.0129 49.0428 34.746 47.1871 34.2023 45.6755C33.6586 44.1638 32.6701 43.4035 31.2368 43.4035C30.3175 43.4035 29.586 43.8018 29.0225 44.5893C28.4591 45.3858 28.0538 46.3725 27.8264 47.5583C27.5892 48.744 27.4706 49.9751 27.4706 51.2333C27.4706 53.3786 27.7572 55.2161 28.3405 56.7549C28.9237 58.2937 29.9023 59.0631 31.2862 59.0631C32.6701 59.0631 33.6784 58.3028 34.2122 56.7821C34.7559 55.2614 35.0228 53.4148 35.0228 51.2333L35.0129 51.2423ZM38.7099 51.2967C38.7099 52.7812 38.5221 54.1118 38.1365 55.3066C37.751 56.5015 37.2172 57.5243 36.5352 58.3571C35.8531 59.1989 35.0524 59.8416 34.143 60.2761C33.2336 60.7106 32.2648 60.9369 31.2368 60.9369C29.8133 60.9369 28.5382 60.5567 27.4014 59.7963C26.2646 59.036 25.3749 57.9226 24.7324 56.4562C24.0899 54.9898 23.7637 53.2519 23.7637 51.2423C23.7637 49.7669 23.9515 48.4272 24.337 47.2233C24.7126 46.0195 25.2464 44.9966 25.9285 44.1457C26.6106 43.2949 27.4014 42.6522 28.3009 42.2086C29.2005 41.7651 30.1692 41.5479 31.1972 41.5479C32.6009 41.5479 33.8761 41.9371 35.0228 42.7155C36.1694 43.494 37.069 44.6255 37.7214 46.11C38.3738 47.5945 38.7099 49.3234 38.7099 51.2967Z" fill="white"/>
<path fill-rule="evenodd" clip-rule="evenodd" d="M46.2225 42.082L49.2177 53.0438C49.3264 53.4059 49.4055 53.9942 49.4549 54.7998C49.5043 53.9942 49.5834 53.4149 49.6921 53.0438L52.7664 42.082H58.5096V43.9467C57.9264 43.9467 57.5112 44.0191 57.2542 44.1549C56.9972 44.2907 56.8292 44.5441 56.7501 44.9243C56.671 45.2954 56.6216 45.8928 56.6216 46.6985V55.8408C56.6216 56.7007 56.671 57.3162 56.76 57.6693C56.8489 58.0223 57.0269 58.2576 57.2938 58.3572C57.5607 58.4658 58.0055 58.5201 58.6381 58.5201V60.3848H51.0464V58.5201C51.679 58.5201 52.1239 58.4658 52.3908 58.3482C52.6478 58.2305 52.8257 57.9951 52.9147 57.6421C53.0036 57.2891 53.0531 56.6826 53.0531 55.8408L53.1717 45.8747C53.1124 46.4812 52.9542 47.2778 52.6972 48.2825L49.2374 60.3939H47.6954L44.1565 47.9567C43.9094 47.2054 43.7512 46.5084 43.682 45.8747L43.7611 56.0671C43.7611 56.7279 43.8105 57.2438 43.9094 57.5969C44.0082 57.9499 44.1862 58.2033 44.4333 58.3572C44.6804 58.5111 45.0462 58.5835 45.5305 58.5835C45.5404 58.5835 45.5701 58.5744 45.6096 58.5563C45.6492 58.5382 45.6887 58.5292 45.7282 58.5292V60.3939H40.1333V58.5292C40.7165 58.5292 41.1416 58.4477 41.4282 58.2938C41.705 58.14 41.8928 57.8594 42.0016 57.4611C42.1004 57.0628 42.1498 56.4473 42.1498 55.6326V46.7075C42.1498 45.9019 42.1103 45.3135 42.0312 44.9334C41.9521 44.5622 41.7841 44.2997 41.537 44.1639C41.2899 44.0282 40.8747 43.9558 40.3112 43.9558V42.0911H46.2521L46.2225 42.082Z" fill="white"/>
<path fill-rule="evenodd" clip-rule="evenodd" d="M71.5678 42.0813L71.9138 47.2318H70.5793C70.5595 46.0732 70.3717 45.2313 70.0158 44.7154C69.66 44.1994 69.057 43.946 68.2266 43.946H65.271V49.8568H66.5659C67.1887 49.8568 67.6138 49.6577 67.8411 49.2685C68.0685 48.8792 68.197 48.2366 68.2168 47.3314H69.314V54.1836H68.2168C68.2168 53.2241 68.108 52.5452 67.8807 52.1469C67.6632 51.7487 67.2184 51.5495 66.5561 51.5495H65.2611V56.2655C65.2611 56.9263 65.36 57.4151 65.5478 57.741C65.7356 58.0668 65.9926 58.275 66.3089 58.3655C66.6253 58.4651 67.0207 58.5104 67.505 58.5104C68.2859 58.5104 68.9482 58.4199 69.4919 58.2298C70.0257 58.0397 70.4705 57.6686 70.8264 57.1164C71.1823 56.5642 71.3997 55.7677 71.4788 54.7267H72.6947L72.4179 60.375H59.8243V58.5104C60.2593 58.5104 60.5954 58.4742 60.8425 58.4108C61.0896 58.3474 61.2774 58.2207 61.4059 58.0397C61.5345 57.8586 61.6135 57.6052 61.6531 57.2793C61.6926 56.9535 61.7124 56.4737 61.7124 55.831V46.6887C61.7124 45.8831 61.6728 45.2947 61.5839 44.9145C61.5048 44.5434 61.3269 44.2809 61.0699 44.1451C60.8128 44.0094 60.3977 43.9369 59.8145 43.9369V42.0723H71.548L71.5678 42.0813Z" fill="white"/>
<path fill-rule="evenodd" clip-rule="evenodd" d="M79.7427 42.0813L85.5354 53.5319C85.8517 54.1474 86.0593 54.7448 86.168 55.3422L86.089 46.3085C86.089 45.6477 86.0296 45.1589 85.9209 44.8331C85.8122 44.5072 85.6342 44.2809 85.3871 44.1632C85.14 44.0456 84.7643 43.9731 84.2701 43.946H83.9933V42.0813H89.697V43.946H89.4202C88.7085 43.9731 88.234 44.1361 87.9968 44.4257C87.7595 44.7154 87.6409 45.349 87.6409 46.3085V60.3841H84.883L78.0722 47.2409C77.8152 46.8426 77.6273 46.2542 77.4791 45.4848L77.5581 56.166C77.5581 56.8086 77.6372 57.2974 77.7954 57.6233C77.9535 57.9492 78.1809 58.1574 78.4676 58.2569C78.7542 58.3565 79.1398 58.4108 79.6044 58.4108V60.3841H74.0588V58.4108C74.1972 58.3746 74.4246 58.3384 74.7409 58.3022C75.0572 58.266 75.2945 58.2026 75.4427 58.1121C75.6009 58.0216 75.7195 57.8405 75.8085 57.5599C75.8975 57.2884 75.9469 56.881 75.9469 56.3289V46.6887C75.9469 45.865 75.9073 45.2766 75.8283 44.9055C75.7492 44.5344 75.591 44.29 75.3439 44.1451C75.0968 44.0094 74.6816 43.9369 74.0984 43.9369V42.0723H79.723L79.7427 42.0813Z" fill="white"/>
<path fill-rule="evenodd" clip-rule="evenodd" d="M98.7418 50.4276C98.4552 50.4276 98.2081 50.2556 98.0005 49.9026C97.7929 49.5586 97.694 49.1513 97.694 48.6806C97.694 48.2099 97.7929 47.7845 98.0005 47.4405C98.1982 47.0965 98.4453 46.9336 98.7418 46.9336C99.0384 46.9336 99.2658 47.1056 99.4635 47.4495C99.6612 47.7935 99.76 48.2008 99.76 48.6806C99.76 49.1603 99.6612 49.5496 99.4536 49.9026C99.2559 50.2556 99.0088 50.4276 98.732 50.4276H98.7418ZM99.7402 51.9483V58.2665C99.7402 58.5652 99.76 58.7734 99.7996 58.9091C99.8391 59.0449 99.9083 59.1354 99.9973 59.1807C100.086 59.226 100.225 59.2531 100.422 59.2712H100.58V60.3846H97.0515V59.2712H97.1899C97.4469 59.2441 97.6248 59.1988 97.7336 59.1354C97.8423 59.0721 97.8917 58.9092 97.8917 58.6376V54.6638C97.8917 54.2113 97.8324 53.9307 97.7039 53.822C97.5853 53.7134 97.3579 53.6591 97.0416 53.6591V52.5457C97.6842 52.5457 98.5837 52.3466 99.7304 51.9483H99.7402Z" fill="white"/>
<path fill-rule="evenodd" clip-rule="evenodd" d="M103.823 53.2519C104.119 52.7902 104.426 52.4462 104.712 52.2199C105.009 51.9936 105.335 51.876 105.711 51.876C106.848 51.876 107.421 52.8264 107.421 54.7363V57.8954C107.421 58.2847 107.431 58.5743 107.451 58.7554C107.47 58.9364 107.53 59.0631 107.619 59.1446C107.708 59.2261 107.856 59.2713 108.063 59.2713H108.192V60.3847H104.9V59.2713C105.167 59.2713 105.355 59.1898 105.434 59.0269C105.523 58.864 105.563 58.5653 105.563 58.1217V55.2251C105.563 54.2385 105.335 53.7406 104.871 53.7406C104.495 53.7406 104.218 53.9217 104.05 54.2928C103.872 54.6639 103.783 55.1708 103.783 55.8135V57.8954C103.783 58.4114 103.823 58.7735 103.902 58.9726C103.981 59.1717 104.159 59.2713 104.455 59.2713V60.3847H101.174V59.2713C101.401 59.2713 101.569 59.2351 101.678 59.1536C101.786 59.0722 101.856 58.9454 101.895 58.7554C101.935 58.5653 101.945 58.2847 101.945 57.9045V54.1932C101.945 53.8493 101.875 53.632 101.727 53.5506C101.579 53.46 101.381 53.4148 101.124 53.4148V52.2652C101.124 52.2652 101.164 52.2652 101.193 52.2833C101.223 52.2924 101.243 52.3014 101.263 52.3014C102.093 52.3014 102.913 52.1928 103.724 51.9665C103.783 52.5458 103.813 52.9803 103.813 53.27L103.823 53.2519Z" fill="white"/>
<path fill-rule="evenodd" clip-rule="evenodd" d="M122.703 51.749V56.6913C122.703 57.3792 122.822 57.868 123.059 58.1577C123.296 58.4473 123.652 58.5922 124.137 58.5922C124.769 58.5922 125.234 58.2935 125.52 57.6961C125.807 57.0986 125.955 56.293 125.955 55.2792C125.955 54.4283 125.866 53.7495 125.679 53.2245C125.501 52.6994 125.224 52.3283 124.868 52.093C124.512 51.8667 124.057 51.749 123.504 51.749H122.693H122.703ZM122.703 49.9024C123.188 49.9024 123.593 49.8753 123.899 49.83C124.206 49.7848 124.483 49.6671 124.72 49.477C124.957 49.2869 125.145 48.9791 125.273 48.5628C125.402 48.1373 125.471 47.5761 125.471 46.861C125.471 45.8653 125.323 45.1502 125.026 44.7067C124.73 44.2632 124.255 44.0459 123.613 44.0459C123.217 44.0459 122.911 44.064 122.703 44.1002V49.9115V49.9024ZM125.649 50.7714C126.776 50.8619 127.675 51.2602 128.348 51.9572C129.02 52.6542 129.356 53.8128 129.356 55.4512C129.356 56.5555 129.178 57.4698 128.822 58.2211C128.466 58.9633 127.992 59.5155 127.399 59.8685C126.815 60.2215 126.173 60.3935 125.471 60.3935H117.869V58.5469C118.255 58.5469 118.561 58.5107 118.779 58.4474C118.996 58.384 119.164 58.2573 119.273 58.0762C119.382 57.8952 119.461 57.6417 119.5 57.3249C119.54 56.9991 119.56 56.5284 119.56 55.8947V46.8248C119.56 46.0283 119.52 45.4399 119.451 45.0688C119.372 44.6976 119.224 44.4442 118.996 44.3084C118.769 44.1726 118.393 44.1093 117.879 44.1093V42.2627H124.74C125.827 42.2627 126.667 42.4437 127.26 42.8058C127.735 43.1317 128.11 43.6476 128.407 44.3627C128.694 45.0778 128.842 45.8472 128.842 46.6528C128.842 47.549 128.694 48.3003 128.397 48.9067C128.1 49.5132 127.705 49.9748 127.221 50.2736C126.736 50.5723 126.212 50.7443 125.659 50.7805L125.649 50.7714Z" fill="white"/>
<path fill-rule="evenodd" clip-rule="evenodd" d="M144.836 42.2446V44.0912C144.401 44.0912 144.065 44.1365 143.828 44.2179C143.59 44.2994 143.403 44.4985 143.274 44.8153C143.146 45.1231 143.086 45.6119 143.086 46.2727V53.8762C143.086 54.6094 143.066 55.2611 143.017 55.8405C142.978 56.4198 142.879 56.981 142.73 57.5241C142.582 58.0672 142.355 58.5379 142.068 58.9271C141.149 60.2668 139.735 60.9366 137.827 60.9366C136.819 60.9366 135.89 60.7647 135.05 60.4116C134.209 60.0677 133.518 59.434 132.974 58.5198C132.43 57.6056 132.163 56.3655 132.163 54.7905V46.8067C132.163 46.0102 132.124 45.4218 132.055 45.0507C131.985 44.6796 131.827 44.4261 131.6 44.2903C131.372 44.1546 130.997 44.0912 130.483 44.0912V42.2446H136.997V44.0912C136.483 44.0912 136.107 44.1546 135.88 44.2903C135.653 44.4261 135.504 44.6796 135.425 45.0507C135.346 45.4218 135.317 46.0102 135.317 46.8067V54.0844C135.317 54.6818 135.336 55.1887 135.366 55.5961C135.396 56.0124 135.475 56.4107 135.603 56.809C135.732 57.2073 135.91 57.5603 136.167 57.8771C136.73 58.5651 137.472 58.909 138.371 58.909C140.566 58.909 141.663 57.3159 141.663 54.1297V46.3089C141.663 45.6934 141.623 45.2317 141.544 44.924C141.465 44.6162 141.327 44.399 141.129 44.2722C140.931 44.1455 140.635 44.0912 140.229 44.0912H140.022V42.2446H144.856H144.836Z" fill="white"/>
<path fill-rule="evenodd" clip-rule="evenodd" d="M154.849 41.9729V47.1325H153.762C153.683 46.4174 153.485 45.7656 153.179 45.1773C152.872 44.5889 152.497 44.1363 152.052 43.8104C151.607 43.4846 151.152 43.3307 150.668 43.3307C150.184 43.3307 149.818 43.4846 149.472 43.7923C149.126 44.1001 148.958 44.5798 148.958 45.2225C148.958 45.7475 149.077 46.182 149.334 46.526C149.581 46.8699 149.917 47.1958 150.322 47.5036L152.21 48.807C152.942 49.3139 153.545 49.7937 153.999 50.2463C154.454 50.6989 154.83 51.2872 155.126 52.0204C155.423 52.7536 155.571 53.6317 155.571 54.6817C155.571 55.958 155.383 57.0623 155.008 58.0037C154.632 58.9451 154.118 59.6692 153.456 60.1761C152.793 60.674 152.052 60.9274 151.222 60.9274C150.599 60.9274 149.956 60.7735 149.304 60.4567C148.652 60.149 148.029 59.7235 147.436 59.1895L147.258 60.6016H146.141V54.564H147.258C147.436 55.433 147.712 56.2114 148.088 56.9084C148.474 57.6054 148.928 58.1485 149.452 58.5468C149.976 58.9451 150.53 59.1442 151.103 59.1442C151.449 59.1442 151.775 59.0446 152.072 58.8365C152.368 58.6283 152.615 58.3386 152.793 57.9494C152.971 57.5692 153.06 57.1166 153.06 56.5916C153.06 56.1028 152.951 55.6683 152.744 55.2791C152.536 54.8899 152.279 54.5459 151.973 54.2653C151.666 53.9847 151.33 53.7222 150.974 53.4868C150.619 53.2515 150.302 53.0342 150.016 52.8442C149.235 52.3101 148.612 51.8394 148.157 51.423C147.703 51.0066 147.327 50.4454 147.011 49.7484C146.704 49.0424 146.546 48.1644 146.546 47.0962C146.546 45.9557 146.724 44.9781 147.09 44.1635C147.455 43.3488 147.94 42.7333 148.543 42.335C149.156 41.9277 149.808 41.7285 150.53 41.7285C151.479 41.7285 152.467 42.163 153.505 43.032L153.713 42.0001H154.8L154.849 41.9729Z" fill="white"/>
<path fill-rule="evenodd" clip-rule="evenodd" d="M156.846 42.2446H163.36V44.0912C162.846 44.0912 162.471 44.1546 162.243 44.2903C162.016 44.4261 161.868 44.6796 161.789 45.0507C161.71 45.4218 161.68 46.0102 161.68 46.8067V55.8767C161.68 56.6732 161.72 57.2525 161.789 57.6146C161.858 57.9767 162.016 58.2211 162.243 58.3478C162.471 58.4745 162.846 58.5379 163.36 58.5379V60.3845H156.846V58.5379C157.232 58.5379 157.528 58.5017 157.756 58.4383C157.973 58.375 158.141 58.2482 158.25 58.0672C158.359 57.8862 158.438 57.6327 158.467 57.3159C158.507 56.99 158.527 56.5194 158.527 55.8857V46.8158C158.527 46.0192 158.487 45.4309 158.418 45.0597C158.349 44.6886 158.191 44.4352 157.963 44.2994C157.736 44.1636 157.36 44.1002 156.846 44.1002V42.2537V42.2446Z" fill="white"/>
<path fill-rule="evenodd" clip-rule="evenodd" d="M169.42 42.2446L174.57 53.5956C174.857 54.2021 175.045 54.7995 175.134 55.3879L175.064 46.4356C175.064 45.7839 175.015 45.2951 174.916 44.9692C174.817 44.6434 174.659 44.4261 174.442 44.3084C174.224 44.1908 173.888 44.1184 173.453 44.1002H173.206V42.2537H178.287V44.1002H178.04C177.407 44.1274 176.982 44.2813 176.775 44.58C176.567 44.8697 176.458 45.4942 176.458 46.4447V60.3935H174.007L167.947 47.3589C167.72 46.9606 167.542 46.3813 167.423 45.621L167.492 56.2025C167.492 56.8452 167.562 57.325 167.7 57.6508C167.838 57.9767 168.036 58.1849 168.293 58.2845C168.55 58.384 168.886 58.4383 169.301 58.4383V60.3935H164.359V58.4383C164.478 58.4021 164.685 58.3659 164.962 58.3297C165.239 58.2935 165.456 58.2301 165.585 58.1396C165.723 58.0491 165.832 57.8681 165.911 57.5965C165.99 57.325 166.029 56.9176 166.029 56.3836V46.8248C166.029 46.0102 166 45.4218 165.931 45.0597C165.861 44.6977 165.713 44.4442 165.496 44.3084C165.278 44.1727 164.903 44.1093 164.389 44.1093V42.2627H169.39L169.42 42.2446Z" fill="white"/>
<path fill-rule="evenodd" clip-rule="evenodd" d="M189.595 42.2446L189.912 47.3499H188.726C188.706 46.2003 188.538 45.3675 188.221 44.8606C187.905 44.3537 187.371 44.1002 186.62 44.1002H183.991V49.9658H185.147C185.701 49.9658 186.076 49.7757 186.284 49.3865C186.492 48.9973 186.6 48.3637 186.62 47.4675H187.599V54.2564H186.62C186.62 53.306 186.521 52.6361 186.323 52.2378C186.126 51.8396 185.73 51.6495 185.147 51.6495H183.991V56.3202C183.991 56.9719 184.08 57.4607 184.248 57.7776C184.416 58.0944 184.643 58.3026 184.93 58.4021C185.206 58.4926 185.562 58.547 185.987 58.547C186.689 58.547 187.272 58.4564 187.757 58.2663C188.231 58.0853 188.627 57.7142 188.943 57.162C189.259 56.6099 189.447 55.8224 189.526 54.7905H190.614L190.366 60.3845H179.157V58.5379C179.542 58.5379 179.849 58.5017 180.066 58.4383C180.284 58.375 180.452 58.2482 180.56 58.0672C180.669 57.8862 180.748 57.6327 180.778 57.3159C180.817 56.99 180.837 56.5194 180.837 55.8857V46.8158C180.837 46.0192 180.798 45.4309 180.729 45.0597C180.659 44.6886 180.501 44.4352 180.274 44.2994C180.046 44.1636 179.671 44.1002 179.157 44.1002V42.2537H189.595V42.2446Z" fill="white"/>
<path fill-rule="evenodd" clip-rule="evenodd" d="M200.795 41.9729V47.1325H199.708C199.629 46.4174 199.431 45.7656 199.125 45.1773C198.818 44.5889 198.443 44.1363 197.998 43.8104C197.553 43.4846 197.098 43.3307 196.614 43.3307C196.129 43.3307 195.764 43.4846 195.418 43.7923C195.072 44.1001 194.904 44.5798 194.904 45.2225C194.904 45.7475 195.022 46.182 195.279 46.526C195.526 46.8699 195.863 47.1958 196.268 47.5036L198.156 48.807C198.887 49.3139 199.49 49.7937 199.945 50.2463C200.4 50.6989 200.775 51.2872 201.072 52.0204C201.368 52.7536 201.517 53.6317 201.517 54.6817C201.517 55.958 201.329 57.0623 200.953 58.0037C200.578 58.9451 200.064 59.6692 199.401 60.1761C198.739 60.674 197.998 60.9274 197.167 60.9274C196.545 60.9274 195.912 60.7735 195.25 60.4567C194.597 60.149 193.974 59.7235 193.381 59.1895L193.203 60.6016H192.086V54.564H193.203C193.381 55.433 193.658 56.2114 194.034 56.9084C194.419 57.6054 194.874 58.1485 195.398 58.5468C195.922 58.9451 196.475 59.1442 197.049 59.1442C197.395 59.1442 197.721 59.0446 198.017 58.8365C198.314 58.6283 198.561 58.3386 198.739 57.9494C198.917 57.5692 199.006 57.1166 199.006 56.5916C199.006 56.1028 198.897 55.6683 198.69 55.2791C198.482 54.8899 198.225 54.5459 197.919 54.2653C197.612 53.9847 197.276 53.7222 196.92 53.4868C196.564 53.2515 196.248 53.0342 195.961 52.8442C195.18 52.3101 194.558 51.8394 194.103 51.423C193.648 51.0066 193.273 50.4454 192.956 49.7484C192.65 49.0424 192.492 48.1644 192.492 47.0962C192.492 45.9557 192.67 44.9781 193.035 44.1635C193.401 43.3488 193.885 42.7333 194.488 42.335C195.101 41.9277 195.764 41.7285 196.475 41.7285C197.424 41.7285 198.413 42.163 199.451 43.032L199.658 42.0001H200.746L200.795 41.9729Z" fill="white"/>
<path fill-rule="evenodd" clip-rule="evenodd" d="M211.797 41.9729V47.1325H210.71C210.631 46.4174 210.433 45.7656 210.127 45.1773C209.82 44.5889 209.445 44.1363 209 43.8104C208.555 43.4846 208.1 43.3307 207.616 43.3307C207.131 43.3307 206.766 43.4846 206.42 43.7923C206.074 44.1001 205.906 44.5798 205.906 45.2225C205.906 45.7475 206.024 46.182 206.281 46.526C206.529 46.8699 206.865 47.1958 207.27 47.5036L209.158 48.807C209.889 49.3139 210.492 49.7937 210.947 50.2463C211.402 50.6989 211.777 51.2872 212.074 52.0204C212.371 52.7536 212.519 53.6317 212.519 54.6817C212.519 55.958 212.331 57.0623 211.955 58.0037C211.58 58.9451 211.066 59.6692 210.403 60.1761C209.741 60.674 209 60.9274 208.169 60.9274C207.547 60.9274 206.914 60.7735 206.252 60.4567C205.599 60.149 204.977 59.7235 204.383 59.1895L204.206 60.6016H203.089V54.564H204.206C204.383 55.433 204.66 56.2114 205.036 56.9084C205.421 57.6054 205.876 58.1485 206.4 58.5468C206.924 58.9451 207.477 59.1442 208.051 59.1442C208.397 59.1442 208.723 59.0446 209.02 58.8365C209.316 58.6283 209.563 58.3386 209.741 57.9494C209.919 57.5692 210.008 57.1166 210.008 56.5916C210.008 56.1028 209.899 55.6683 209.692 55.2791C209.484 54.8899 209.227 54.5459 208.921 54.2653C208.614 53.9847 208.278 53.7222 207.922 53.4868C207.566 53.2515 207.25 53.0342 206.963 52.8442C206.183 52.3101 205.56 51.8394 205.105 51.423C204.65 51.0066 204.275 50.4454 203.958 49.7484C203.652 49.0424 203.494 48.1644 203.494 47.0962C203.494 45.9557 203.672 44.9781 204.037 44.1635C204.403 43.3488 204.888 42.7333 205.491 42.335C206.103 41.9277 206.756 41.7285 207.477 41.7285C208.426 41.7285 209.415 42.163 210.453 43.032L210.66 42.0001H211.748L211.797 41.9729Z" fill="white"/>
<path fill-rule="evenodd" clip-rule="evenodd" d="M14.8078 76.8951C14.8078 78.0175 14.5014 78.805 13.8885 79.2757C13.2756 79.7464 12.4354 79.9818 11.3678 79.9818C10.3002 79.9818 9.45998 79.7464 8.84711 79.2757C8.23423 78.805 7.9278 78.0085 7.9278 76.8951V71.7446H9.44021V76.5421C9.44021 77.0218 9.47975 77.4111 9.56871 77.7188C9.65768 78.0266 9.83561 78.28 10.1223 78.4701C10.3991 78.6602 10.8241 78.7507 11.3777 78.7507C11.9312 78.7507 12.3563 78.6602 12.6331 78.4701C12.9197 78.28 13.0977 78.0266 13.1866 77.7188C13.2756 77.4111 13.3151 77.0218 13.3151 76.5421V71.7446H14.8276V76.8951H14.8078Z" fill="white"/>
<path fill-rule="evenodd" clip-rule="evenodd" d="M24.8115 79.837H22.8543L19.7207 76.4064C19.7207 76.4064 19.5922 76.2434 19.3945 75.9809V79.8189H17.8821V71.7266H19.3945V75.4288C19.4835 75.302 19.6317 75.1391 19.8294 74.9219L22.7455 71.7266H24.683L20.8773 75.7365L24.8115 79.8279V79.837Z" fill="white"/>
<path fill-rule="evenodd" clip-rule="evenodd" d="M32.2648 74.1253C32.2648 73.8266 32.2055 73.6003 32.0869 73.4283C31.9683 73.2563 31.7805 73.1386 31.5136 73.0662C31.2467 72.9938 30.8809 72.9576 30.4163 72.9576H28.7952V75.4378H30.3471C31.6322 75.4378 32.2747 75.0033 32.2747 74.1343L32.2648 74.1253ZM34.0145 79.837H32.1067L29.2499 76.7956C29.1313 76.687 28.9731 76.4607 28.7853 76.1257V79.8279H27.2729V71.7266H30.9501C31.6322 71.7266 32.1956 71.8261 32.6207 72.0253C33.0458 72.2244 33.3522 72.496 33.54 72.8309C33.7278 73.1658 33.8168 73.5369 33.8168 73.9533C33.8168 74.768 33.5301 75.3382 32.9568 75.6822C32.3835 76.0262 31.5828 76.1982 30.5646 76.2163L34.0145 79.837Z" fill="white"/>
<path fill-rule="evenodd" clip-rule="evenodd" d="M41.4777 76.3608L40.1037 72.6677L38.7297 76.3608H41.4777ZM44.3048 79.8367H42.7331L41.8731 77.5376H38.3639L37.4841 79.8367H35.9322L38.9867 71.7354H41.2602L44.3048 79.8367Z" fill="white"/>
<path d="M48.3182 71.7266H46.8058V79.8189H48.3182V71.7266Z" fill="white"/>
<path fill-rule="evenodd" clip-rule="evenodd" d="M58.6382 79.8367H56.76L53.4386 74.4509C53.2904 74.2156 53.0531 73.6996 52.717 72.9211C52.7665 73.7087 52.7862 74.2518 52.7862 74.5505V79.8367H51.3035V71.7354H53.5276L56.5821 76.741C56.849 77.3022 57.0862 77.8906 57.3037 78.4971C57.2839 78.2889 57.2642 78.1259 57.2543 77.9992C57.2444 77.8725 57.2246 77.7458 57.2147 77.61C57.2048 77.4833 57.195 77.3113 57.1752 77.1121C57.1653 76.9039 57.1554 76.7501 57.1554 76.6595V71.7354H58.6382V79.8367Z" fill="white"/>
<path d="M63.1458 71.7266H61.6334V79.8189H63.1458V71.7266Z" fill="white"/>
<path fill-rule="evenodd" clip-rule="evenodd" d="M71.1922 76.3608L69.8182 72.6677L68.4441 76.3608H71.1922ZM74.0193 79.8367H72.4476L71.5876 77.5376H68.0784L67.1986 79.8367H65.6467L68.7011 71.7354H70.9747L74.0193 79.8367Z" fill="white"/>
<path fill-rule="evenodd" clip-rule="evenodd" d="M83.8055 79.8367H81.9274L78.606 74.4509C78.4577 74.2156 78.2205 73.6996 77.8844 72.9211C77.9338 73.7087 77.9536 74.2518 77.9536 74.5505V79.8367H76.4708V71.7354H78.695L81.7494 76.741C82.0163 77.3022 82.2536 77.8906 82.4711 78.4971C82.4513 78.2889 82.4315 78.1259 82.4216 77.9992C82.4117 77.8725 82.392 77.7458 82.3821 77.61C82.3722 77.4833 82.3623 77.3113 82.3426 77.1121C82.3327 76.9039 82.3228 76.7501 82.3228 76.6595V71.7354H83.8055V79.8367Z" fill="white"/>
<path fill-rule="evenodd" clip-rule="evenodd" d="M130.898 74.0711C130.898 73.4737 130.7 73.0754 130.315 72.8581C129.929 72.65 129.385 72.5413 128.694 72.5413H127.27V75.7004H128.723C129.455 75.7004 129.998 75.5465 130.354 75.2388C130.72 74.931 130.898 74.5418 130.898 74.0711ZM132.45 73.9263C132.45 74.5056 132.321 75.0125 132.054 75.4651C131.788 75.9177 131.392 76.2707 130.858 76.5332C130.325 76.7957 129.682 76.9224 128.931 76.9224H127.26V79.8371H125.748V71.2017H129.395C130.166 71.2017 130.779 71.3465 131.234 71.618C131.689 71.8986 132.005 72.2426 132.183 72.659C132.361 73.0663 132.45 73.4918 132.45 73.9353V73.9263Z" fill="white"/>
<path fill-rule="evenodd" clip-rule="evenodd" d="M140.229 79.8371H135.01V71.2017H136.523V78.5065H140.229V79.8371Z" fill="white"/>
<path fill-rule="evenodd" clip-rule="evenodd" d="M147.801 76.1349L146.427 72.1974L145.053 76.1349H147.801ZM150.629 79.8371H149.057L148.197 77.3931H144.688L143.808 79.8371H142.256L145.31 71.2017H147.584L150.629 79.8371Z" fill="white"/>
<path fill-rule="evenodd" clip-rule="evenodd" d="M159.861 72.5956H157.074V79.828H155.561V72.5956H152.754V71.2017H159.861V72.5956Z" fill="white"/>
<path fill-rule="evenodd" clip-rule="evenodd" d="M168.461 76.2616H164.072V79.8371H162.56V71.2017H168.461V72.5504H164.072V74.9672H168.461V76.2616Z" fill="white"/>
<path fill-rule="evenodd" clip-rule="evenodd" d="M177.17 75.5916C177.17 74.8765 177.091 74.2972 176.943 73.8356C176.784 73.3739 176.537 73.0299 176.181 72.8036C175.826 72.5773 175.361 72.4597 174.768 72.4597C174.175 72.4597 173.71 72.5773 173.364 72.8036C173.008 73.039 172.751 73.383 172.603 73.8446C172.445 74.3062 172.366 74.8946 172.366 75.6097C172.366 76.2433 172.465 76.7955 172.652 77.2571C172.84 77.7278 173.117 78.0809 173.483 78.3343C173.849 78.5878 174.274 78.7145 174.778 78.7145C175.143 78.7145 175.47 78.6421 175.766 78.4972C176.063 78.3524 176.31 78.1442 176.527 77.8727C176.735 77.6011 176.903 77.2662 177.012 76.886C177.12 76.4968 177.18 76.0623 177.18 75.5916H177.17ZM178.682 75.4196C178.682 76.1347 178.593 76.7774 178.415 77.3477C178.237 77.9179 177.971 78.3977 177.634 78.7869C177.288 79.1852 176.883 79.4839 176.399 79.6921C175.914 79.9003 175.371 79.9998 174.778 79.9998C174.185 79.9998 173.641 79.9003 173.157 79.6921C172.672 79.4839 172.257 79.1852 171.921 78.7869C171.575 78.3886 171.318 77.9089 171.13 77.3386C170.952 76.7683 170.863 76.1347 170.863 75.4196C170.863 74.7045 170.932 74.0437 171.071 73.5006C171.209 72.9575 171.427 72.5049 171.733 72.1429C172.04 71.7808 172.435 71.5092 172.939 71.3282C173.433 71.1472 174.056 71.0566 174.788 71.0566C175.519 71.0566 176.142 71.1472 176.646 71.3282C177.15 71.5092 177.546 71.7808 177.852 72.1429C178.158 72.5049 178.376 72.9575 178.504 73.4916C178.643 74.0347 178.702 74.6774 178.702 75.4196H178.682Z" fill="white"/>
<path fill-rule="evenodd" clip-rule="evenodd" d="M186.383 73.7536C186.383 73.4367 186.323 73.1923 186.205 73.0113C186.086 72.8303 185.898 72.7036 185.632 72.6221C185.365 72.5406 184.999 72.5044 184.534 72.5044H182.913V75.1475H184.465C185.75 75.1475 186.383 74.6859 186.383 73.7626V73.7536ZM188.132 79.8364H186.225L183.368 76.5958C183.249 76.4782 183.091 76.2428 182.903 75.8807V79.8273H181.391V71.1919H185.068C185.75 71.1919 186.314 71.3005 186.739 71.5087C187.164 71.726 187.47 72.0066 187.658 72.3596C187.846 72.7126 187.935 73.1109 187.935 73.5544C187.935 74.4143 187.648 75.0299 187.075 75.3919C186.501 75.754 185.701 75.9441 184.683 75.9622L188.132 79.8183V79.8364Z" fill="white"/>
<path fill-rule="evenodd" clip-rule="evenodd" d="M199.757 79.8364H198.274V74.0342C198.274 73.8622 198.275 73.6087 198.294 73.2829C198.304 72.948 198.314 72.7036 198.314 72.5316C198.265 72.7488 198.195 73.0656 198.097 73.473C198.008 73.8803 197.929 74.188 197.869 74.3962L195.942 79.8364H194.32L192.383 74.3872C192.284 73.9527 192.146 73.31 191.968 72.4411C191.968 72.613 191.978 72.8574 192.007 73.1833C192.027 73.5092 192.047 73.7626 192.047 73.9527V79.8273H190.564V71.1919H192.907L194.864 77.0122C194.953 77.2838 195.052 77.8359 195.171 78.6596C195.279 77.9355 195.378 77.3833 195.477 76.9941L197.385 71.1919H199.747V79.8273L199.757 79.8364Z" fill="white"/>
</svg>
