<svg width="81" height="81" viewBox="0 0 81 81" fill="none" xmlns="http://www.w3.org/2000/svg">
<g id="Icon/Ukraine" clip-path="url(#clip0_988_1805)">
<g id="Layer 2">
<path id="Vector" d="M79.2647 32.9725L76.1582 30.0815C76.0374 29.9691 75.8841 29.9074 75.7256 29.9074H70.9797C70.8026 29.9074 70.6327 29.8304 70.5074 29.6932L68.1007 27.0583C68.0387 26.9904 67.9651 26.9365 67.884 26.8998C67.803 26.863 67.7161 26.8441 67.6284 26.8441H59.8817C59.7274 26.8441 59.5779 26.7857 59.4586 26.6787C59.3392 26.5718 59.2573 26.4229 59.2268 26.2573L58.1826 20.5868C58.1522 20.4212 58.0703 20.2723 57.9509 20.1654C57.8316 20.0584 57.6821 20 57.5279 20H54.8007C54.6548 20 54.513 19.9477 54.3968 19.8512C54.2806 19.7546 54.1965 19.6191 54.1573 19.4654L52.2622 12.0347C52.223 11.8809 52.1389 11.7453 52.0228 11.6488C51.9066 11.5523 51.7647 11.5 51.6189 11.5H45.8873C45.7102 11.5 45.5403 11.577 45.415 11.7142C45.2897 11.8513 45.2193 12.0373 45.2193 12.2313C45.2193 12.3273 45.2021 12.4224 45.1685 12.5111C45.1349 12.5999 45.0857 12.6805 45.0237 12.7484C44.9617 12.8163 44.8881 12.8702 44.807 12.9069C44.726 12.9437 44.6391 12.9626 44.5514 12.9626H40.2279C40.0507 12.9626 39.8808 13.0397 39.7556 13.1768L37.2481 15.9221C37.1228 16.0592 37.0525 16.2453 37.0525 16.4392V19.3383C37.0525 19.483 37.0133 19.6244 36.9399 19.7446C36.8665 19.8649 36.7622 19.9586 36.6401 20.014C36.5181 20.0693 36.3838 20.0838 36.2542 20.0556C36.1246 20.0274 36.0056 19.9577 35.9122 19.8554L34.2738 18.0616C34.1485 17.9245 33.9786 17.8474 33.8014 17.8474H24.4535C24.3839 17.8474 24.3147 17.8355 24.2485 17.8121L16.7857 15.1781C16.7195 15.1548 16.6503 15.1429 16.5807 15.1429H10.8504C10.7428 15.1429 10.6368 15.1714 10.5413 15.2259L6.32599 17.6348C6.23303 17.6879 6.1528 17.7642 6.09179 17.8576C6.03077 17.951 5.9907 18.0588 5.97481 18.1722C5.95891 18.2857 5.96764 18.4017 6.0003 18.5108C6.03295 18.6199 6.08861 18.719 6.16276 18.8002L8.62566 21.4969C8.6877 21.5648 8.7369 21.6454 8.77047 21.7341C8.80404 21.8228 8.82132 21.9179 8.82132 22.014V26.8724C8.82132 26.9684 8.80405 27.0635 8.77048 27.1522C8.73691 27.241 8.6877 27.3216 8.62566 27.3895L3.6228 32.8669C3.56076 32.9348 3.51155 33.0154 3.47798 33.1041C3.44441 33.1929 3.42713 33.288 3.42713 33.384V35.9374C3.42714 36.0334 3.40986 36.1285 3.3763 36.2173C3.34274 36.306 3.29354 36.3866 3.23152 36.4545C3.1695 36.5224 3.09586 36.5763 3.01482 36.6131C2.93379 36.6498 2.84693 36.6687 2.75921 36.6687H2.55328C2.42341 36.6687 2.29635 36.7102 2.18767 36.788C2.07898 36.8658 1.99337 36.9767 1.94133 37.1069L0.556027 40.5738C0.497381 40.7205 0.484352 40.8842 0.518941 41.0398C0.55353 41.1954 0.633825 41.3343 0.747491 41.4351L4.15073 44.4537C4.26968 44.5592 4.41812 44.6168 4.57121 44.6168H11.1661C11.3432 44.6168 11.5131 44.6938 11.6384 44.831L12.2307 45.4795C12.356 45.6167 12.5259 45.6937 12.7031 45.6937C12.8802 45.6937 13.0501 45.6167 13.1754 45.4795L14.0702 44.4998C14.1955 44.3627 14.3654 44.2856 14.5426 44.2856H18.0011C18.1086 44.2856 18.2145 44.2572 18.3099 44.2028C18.4052 44.1484 18.4871 44.0695 18.5487 43.973L20.3681 41.1209C20.4297 41.0244 20.5116 40.9456 20.6069 40.8912C20.7023 40.8368 20.8082 40.8084 20.9157 40.8084H24.3305C24.4415 40.8084 24.5508 40.8387 24.6485 40.8965L30.8546 44.5749C30.9605 44.6377 31.0488 44.7305 31.1104 44.8438C31.172 44.957 31.2046 45.0863 31.2046 45.2181V47.8463C31.2046 47.9423 31.2218 48.0375 31.2554 48.1262C31.289 48.2149 31.3382 48.2955 31.4002 48.3635L34.9916 52.2954C35.1168 52.4326 35.1872 52.6186 35.1872 52.8125V55.5867C35.1872 55.7807 35.1168 55.9667 34.9916 56.1038C34.8663 56.241 34.6964 56.3181 34.5192 56.3181H32.2879C32.2002 56.3181 32.1133 56.337 32.0323 56.3737C31.9512 56.4105 31.8776 56.4643 31.8156 56.5322L28.1738 60.5194C28.0486 60.6566 27.9782 60.8426 27.9782 61.0366V63.3691C27.9782 63.5631 28.0485 63.7491 28.1738 63.8863C28.2991 64.0234 28.469 64.1005 28.6461 64.1005H33.1077C33.2848 64.1005 33.4547 64.0234 33.58 63.8863C33.7052 63.7491 33.7756 63.5631 33.7756 63.3691V61.0734C33.7756 60.8904 33.8383 60.714 33.9513 60.5791L39.7274 53.6849C39.79 53.6102 39.8661 53.5506 39.9508 53.5098C40.0355 53.469 40.1271 53.4479 40.2197 53.4479H44.5513C44.639 53.4479 44.7259 53.4669 44.8069 53.5036C44.8879 53.5404 44.9616 53.5942 45.0236 53.6621C45.0856 53.73 45.1348 53.8106 45.1684 53.8994C45.202 53.9881 45.2192 54.0832 45.2192 54.1792V54.5381C45.2192 54.732 45.1489 54.918 45.0236 55.0551C44.8983 55.1923 44.7285 55.2693 44.5513 55.2693H44.3661C44.2294 55.2693 44.0959 55.3153 43.9838 55.4009C43.8716 55.4866 43.7862 55.608 43.7391 55.7485C43.6919 55.889 43.6853 56.042 43.7201 56.1868C43.755 56.3316 43.8296 56.4612 43.9338 56.5581L45.0348 57.5816C45.154 57.6924 45.3049 57.7539 45.4612 57.7554L50.2538 57.8019C50.43 57.8036 50.5983 57.8814 50.7223 58.0183C50.8463 58.1553 50.9159 58.3403 50.9159 58.5332V59.1701C50.9159 59.3078 50.8804 59.4427 50.8134 59.5593C50.7465 59.6758 50.6509 59.7694 50.5375 59.8291L47.0642 61.6587C46.9442 61.7219 46.8442 61.8229 46.777 61.9488C46.7099 62.0747 46.6786 62.2197 46.6873 62.3652C46.6959 62.5107 46.7441 62.65 46.8256 62.7653C46.9071 62.8806 47.0182 62.9666 47.1447 63.0123L49.7009 63.9349C49.8344 63.9831 49.9506 64.0762 50.0329 64.2009C50.1153 64.3256 50.1597 64.4756 50.1597 64.6295V67.8842C50.1597 68.0235 50.196 68.1599 50.2645 68.2774C50.3329 68.3949 50.4305 68.4885 50.5459 68.5473L52.2819 69.4317C52.4061 69.495 52.545 69.5149 52.6799 69.4888C52.8148 69.4627 52.9391 69.3918 53.036 69.2858L54.1551 68.0604C54.1802 68.0331 54.2071 68.008 54.2357 67.9852L58.4034 64.681C58.5173 64.5907 58.6544 64.542 58.7951 64.542H62.4983C62.6754 64.542 62.8453 64.465 62.9706 64.3279C63.0959 64.1907 63.1663 64.0047 63.1663 63.8108V63.452C63.1663 63.258 63.0959 63.072 62.9706 62.9349C62.8453 62.7977 62.6754 62.7207 62.4983 62.7207H58.1199C58.0125 62.7207 57.9066 62.6924 57.8114 62.6381C57.7161 62.5838 57.6342 62.5051 57.5726 62.4088L55.4226 59.0459C55.344 58.923 55.3018 58.7766 55.3019 58.6265V57.92C55.3019 57.7732 55.3422 57.6298 55.4177 57.5084C55.4932 57.387 55.6003 57.2933 55.7251 57.2395L71.0107 50.6499C71.1355 50.5962 71.2426 50.5025 71.3181 50.3811C71.3935 50.2598 71.4339 50.1163 71.4339 49.9695V47.7793C71.4339 47.656 71.4624 47.5346 71.5167 47.4266C71.5711 47.3185 71.6495 47.2272 71.7447 47.1613L73.7407 45.7788C73.8475 45.7048 73.9713 45.6655 74.0978 45.6655H77.0424C77.2196 45.6655 77.3895 45.5884 77.5147 45.4513C77.64 45.3141 77.7104 45.1281 77.7104 44.9341V43.733C77.7104 43.637 77.7277 43.5419 77.7612 43.4532C77.7948 43.3644 77.844 43.2838 77.906 43.2159L78.6748 42.3742C78.8 42.237 78.8704 42.051 78.8704 41.8571C78.8704 41.6631 78.8 41.4771 78.6748 41.3399L77.8303 40.4154C77.7051 40.2782 77.6347 40.0922 77.6347 39.8983V37.5788C77.6347 37.3849 77.7051 37.1989 77.8303 37.0617L79.3044 35.4479C79.3664 35.38 79.4156 35.2994 79.4492 35.2106C79.4827 35.1219 79.5 35.0268 79.5 34.9307V33.5297C79.5 33.4237 79.479 33.319 79.4383 33.2228C79.3977 33.1265 79.3384 33.0411 79.2647 32.9725ZM37.2373 27.1201C37.0778 27.1201 36.9218 27.0683 36.7892 26.9713C36.6566 26.8742 36.5532 26.7363 36.4921 26.5749C36.4311 26.4136 36.4151 26.236 36.4462 26.0647C36.4773 25.8934 36.5542 25.736 36.667 25.6125C36.7798 25.489 36.9235 25.4049 37.08 25.3708C37.2364 25.3368 37.3986 25.3542 37.546 25.4211C37.6934 25.4879 37.8194 25.6011 37.908 25.7463C37.9966 25.8916 38.0439 26.0623 38.0439 26.237C38.0439 26.4712 37.9589 26.6958 37.8077 26.8614C37.6564 27.027 37.4512 27.1201 37.2373 27.1201Z" fill="#BE2D5E"/>
</g>
</g>
<defs>
<clipPath id="clip0_988_1805">
<rect width="80" height="80" fill="white" transform="translate(0.5 0.5)"/>
</clipPath>
</defs>
</svg>
