<svg width="81" height="81" viewBox="0 0 81 81" fill="none" xmlns="http://www.w3.org/2000/svg">
<g id="Icon/handshake">
<path id="Vector" d="M71.6111 23.5888V42.4777C71.6111 42.4777 67.5778 43.2666 66.7445 43.3777C65.9111 43.4888 63.3222 44.3221 61.4334 42.511C58.5222 39.6666 48.2 29.3888 48.2 29.3888C47.5512 28.8613 46.7511 28.5542 45.916 28.5123C45.0808 28.4703 44.254 28.6956 43.5556 29.1555C40.9334 30.5333 37.0334 32.5666 35.4111 33.3555C34.8641 33.6753 34.2449 33.851 33.6115 33.8662C32.978 33.8815 32.3511 33.7357 31.7893 33.4426C31.2276 33.1496 30.7494 32.7187 30.3995 32.1904C30.0496 31.6622 29.8396 31.0537 29.7889 30.4221C29.8245 29.7032 30.0624 29.0089 30.4752 28.4192C30.888 27.8295 31.4589 27.3683 32.1222 27.0888C35.8222 24.8666 43.6334 20.4221 46.8889 18.7333C48.8667 17.6221 50.2889 17.6221 53.0111 19.8444C56.3556 22.7221 59.3889 25.2444 59.3889 25.2444C59.7481 25.5006 60.1586 25.676 60.5921 25.7585C61.0256 25.8409 61.4718 25.8285 61.9 25.7221C65.6445 24.9444 71.6111 23.5888 71.6111 23.5888ZM30.5 55.4999C30.7516 54.9227 30.8345 54.2861 30.7392 53.6637C30.6439 53.0413 30.3743 52.4587 29.9616 51.9832C29.5489 51.5077 29.01 51.1588 28.4072 50.9769C27.8044 50.7951 27.1624 50.7876 26.5556 50.9555C26.7398 50.3863 26.771 49.7787 26.6462 49.1936C26.5214 48.6086 26.2449 48.0666 25.8445 47.6221C25.4086 47.2065 24.8722 46.9112 24.2879 46.7651C23.7036 46.619 23.0913 46.6272 22.5111 46.7888C22.6939 46.2187 22.7233 45.6105 22.5965 45.0254C22.4698 44.4403 22.1912 43.8988 21.7889 43.4555C21.0688 42.7903 20.1172 42.4331 19.1373 42.4601C18.1574 42.4871 17.2269 42.8962 16.5445 43.5999C15.0111 45.0666 14.0222 47.7333 15.4334 49.311C16.8445 50.8888 18.3667 49.9221 19.5667 49.6444C19.2334 50.8333 18.2334 51.9444 19.4667 53.4999C20.7 55.0555 22.4 54.111 23.6 53.8333C23.2667 55.0221 22.3111 56.2333 23.4889 57.6777C24.6667 59.1221 26.6445 58.3555 27.9334 57.9555C27.4334 59.2333 26.3667 60.611 27.7334 62.1666C29.1 63.7221 32.2667 62.9999 33.8111 61.5221C34.5439 60.8761 34.9905 59.9659 35.0529 58.9911C35.1154 58.0162 34.7887 57.0564 34.1445 56.3221C33.6745 55.8582 33.084 55.5353 32.4398 55.39C31.7956 55.2446 31.1236 55.2827 30.5 55.4999ZM58.6667 45.6999L46.7445 33.8333C46.193 33.3175 45.5045 32.9719 44.7614 32.8378C44.0184 32.7038 43.2524 32.7871 42.5556 33.0777C40.8889 33.811 38.7445 34.811 37.1222 35.5666C36.0056 36.2316 34.7588 36.6485 33.4667 36.7888C32.1112 36.8017 30.7887 36.3709 29.701 35.562C28.6133 34.7531 27.8201 33.6105 27.4424 32.3087C27.0647 31.0068 27.1232 29.6172 27.6091 28.3517C28.0949 27.0862 28.9815 26.0145 30.1334 25.2999C32.7222 23.5333 38.3778 20.4999 38.3778 20.4999C37.6661 19.7517 36.8014 19.1658 35.8426 18.7823C34.8839 18.3988 33.8536 18.2267 32.8222 18.2777C29.0222 18.2777 21.0667 23.4999 21.0667 23.4999C20.225 23.9397 19.2939 24.1813 18.3445 24.2064C17.3952 24.2314 16.4526 24.0392 15.5889 23.6444L9.38892 21.4888V43.0444C9.38892 43.0444 11.1556 43.5555 12.7222 44.1555C13.0781 43.118 13.6717 42.1782 14.4556 41.411C15.72 40.1978 17.4011 39.5149 19.1534 39.5025C20.9057 39.4901 22.5963 40.1492 23.8778 41.3444C24.5909 42.0806 25.1035 42.9872 25.3667 43.9777C26.3305 44.2777 27.2048 44.8122 27.9111 45.5333C28.6268 46.2832 29.1359 47.2058 29.3889 48.211C30.4049 48.5263 31.3203 49.1027 32.0437 49.8827C32.767 50.6626 33.2731 51.6187 33.5111 52.6555C34.5204 52.9428 35.4363 53.4908 36.1667 54.2444C36.8483 54.9572 37.3524 55.8206 37.6381 56.7645C37.9238 57.7085 37.9831 58.7065 37.8111 59.6777C37.8111 59.6777 38.7 60.6777 39.2445 61.2221C39.7572 61.7349 40.4527 62.023 41.1778 62.023C41.9029 62.023 42.5984 61.7349 43.1111 61.2221C43.6239 60.7094 43.9119 60.014 43.9119 59.2888C43.9119 58.5637 43.6239 57.8682 43.1111 57.3555C43.1111 57.3555 45.3334 60.111 47.8667 58.4666C50.0889 56.911 49.7445 55.0666 48.6889 54.0221C49.0111 54.4058 49.411 54.7167 49.8622 54.9345C50.3134 55.1523 50.8056 55.272 51.3064 55.2856C51.8073 55.2993 52.3053 55.2066 52.7677 55.0137C53.23 54.8208 53.6463 54.5321 53.9889 54.1666C54.4658 53.6835 54.7451 53.0396 54.7718 52.3613C54.7985 51.6829 54.5708 51.0191 54.1334 50.4999C54.1334 50.4999 55.6111 52.511 58.5778 50.6333C60.6778 48.8555 59.6889 46.8221 58.5778 45.7555L58.6667 45.6999Z" fill="#BE2D5E"/>
</g>
</svg>
