<svg width="81" height="81" viewBox="0 0 81 81" fill="none" xmlns="http://www.w3.org/2000/svg">
<g id="Icon/about">
<path id="Vector" d="M62.1667 67.1667H18.8334L8.83337 77.1667V20.5C8.83337 15 13.3334 10.5 18.8334 10.5H62.1667C67.6667 10.5 72.1667 15 72.1667 20.5V57.1667C72.1667 62.6667 67.6667 67.1667 62.1667 67.1667Z" fill="#BE2D5E"/>
<g id="Group">
<path id="Vector_2" d="M37.1666 33.833H43.8333V52.1663H37.1666V33.833Z" fill="white"/>
<path id="Vector_3" d="M40.5 28.8332C42.3409 28.8332 43.8333 27.3408 43.8333 25.4998C43.8333 23.6589 42.3409 22.1665 40.5 22.1665C38.659 22.1665 37.1666 23.6589 37.1666 25.4998C37.1666 27.3408 38.659 28.8332 40.5 28.8332Z" fill="white"/>
</g>
</g>
</svg>
