<svg width="81" height="81" viewBox="0 0 81 81" fill="none" xmlns="http://www.w3.org/2000/svg">
<g id="Icon/event-heart">
<path id="Vector" d="M63.532 63.6301V27.0877H17.129V63.6301H63.532ZM53.5885 3.8335H60.2175V10.4776H63.532C65.2901 10.4776 66.9762 11.1776 68.2194 12.4236C69.4626 13.6696 70.161 15.3595 70.161 17.1216V63.6301C70.161 67.3176 67.2111 70.2742 63.532 70.2742H17.129C15.3709 70.2742 13.6848 69.5742 12.4416 68.3282C11.1984 67.0822 10.5 65.3922 10.5 63.6301V17.1216C10.5 13.4674 13.4831 10.4776 17.129 10.4776H20.4435V3.8335H27.0725V10.4776H53.5885V3.8335ZM40.3305 57.5508L38.4081 55.7901C31.5802 49.5779 27.0725 45.4918 27.0725 40.4755C27.0725 36.3894 30.2876 33.1671 34.3644 33.1671C36.6846 33.1671 38.8721 34.2301 40.3305 35.9243C41.7889 34.2301 43.9765 33.1671 46.2966 33.1671C50.3734 33.1671 53.5885 36.3894 53.5885 40.4755C53.5885 45.4918 49.0808 49.5779 42.2529 55.7901L40.3305 57.5508Z" fill="#BE2D5E"/>
</g>
</svg>
