<svg width="39" height="50" viewBox="0 0 39 50" fill="none" xmlns="http://www.w3.org/2000/svg">
<path id="Vector" d="M18.367 48.4183C15.7775 44.7137 13.5746 41.6169 11.7013 38.9835C8.34943 34.2714 6.05296 31.0431 4.48568 28.4713C3.27685 26.4878 2.54044 24.9538 2.09948 23.4844C1.66092 22.0229 1.5 20.5766 1.5 18.75C1.5 8.95936 9.54631 1 19.5 1C29.4537 1 37.5 8.95936 37.5 18.75C37.5 20.5766 37.3391 22.0229 36.9005 23.4844C36.4596 24.9538 35.7231 26.4878 34.5143 28.4713C32.947 31.0431 30.6506 34.2714 27.2987 38.9835C25.4255 41.6167 23.2228 44.7133 20.6335 48.4176C20.0882 49.1939 18.9125 49.1941 18.367 48.4183ZM19.5 27.5625C24.412 27.5625 28.4167 23.6295 28.4167 18.75C28.4167 13.8705 24.412 9.9375 19.5 9.9375C14.588 9.9375 10.5833 13.8705 10.5833 18.75C10.5833 23.6295 14.588 27.5625 19.5 27.5625Z" stroke="#663366" stroke-width="2"/>
</svg>
