<svg width="25" height="25" viewBox="0 0 25 25" fill="none" xmlns="http://www.w3.org/2000/svg">
<path d="M11.457 4.16699H4.16536C3.61283 4.16699 3.08293 4.38649 2.69223 4.77719C2.30152 5.16789 2.08203 5.69779 2.08203 6.25033V20.8337C2.08203 21.3862 2.30152 21.9161 2.69223 22.3068C3.08293 22.6975 3.61283 22.917 4.16536 22.917H18.7487C19.3012 22.917 19.8311 22.6975 20.2218 22.3068C20.6125 21.9161 20.832 21.3862 20.832 20.8337V13.542" stroke="white" stroke-width="2" stroke-linecap="round" stroke-linejoin="round"/>
<path d="M19.2695 2.60424C19.6839 2.18984 20.246 1.95703 20.832 1.95703C21.4181 1.95703 21.9801 2.18984 22.3945 2.60424C22.8089 3.01864 23.0417 3.58069 23.0417 4.16674C23.0417 4.75279 22.8089 5.31484 22.3945 5.72924L12.4987 15.6251L8.33203 16.6667L9.3737 12.5001L19.2695 2.60424Z" stroke="white" stroke-width="2" stroke-linecap="round" stroke-linejoin="round"/>
</svg>
