<svg width="51" height="50" viewBox="0 0 51 50" fill="none" xmlns="http://www.w3.org/2000/svg">
<g id="date 1" clip-path="url(#clip0_50_1721)">
<g id="Icon">
<g id="Group">
<path id="Vector" d="M38 50H3.38462C1.79414 50 0.5 48.6821 0.5 47.0625V5.9375C0.5 4.31787 1.79414 3 3.38462 3H47.6154C49.2059 3 50.5 4.31787 50.5 5.9375V39.2292C50.5 39.5198 50.3732 39.7953 50.1538 39.9818L38.6154 49.7735C38.4427 49.9199 38.2247 50 38 50ZM3.38462 4.95833C2.85446 4.95833 2.42308 5.39718 2.42308 5.9375V47.0625C2.42308 47.6028 2.85446 48.0417 3.38462 48.0417H37.6521L48.5769 38.7703V5.9375C48.5769 5.39718 48.1455 4.95833 47.6154 4.95833H3.38462Z" fill="#663366"/>
<path id="Vector_2" d="M49.5385 14.7059H1.46154C0.930507 14.7059 0.5 14.2674 0.5 13.7255C0.5 13.1836 0.930507 12.7451 1.46154 12.7451H49.5385C50.0695 12.7451 50.5 13.1836 50.5 13.7255C50.5 14.2674 50.0695 14.7059 49.5385 14.7059Z" fill="#663366"/>
<path id="Vector_3" d="M7.23083 7.84314C6.69979 7.84314 6.26929 7.40463 6.26929 6.86274V0.980392C6.26929 0.438503 6.69979 0 7.23083 0C7.76186 0 8.19236 0.438503 8.19236 0.980392V6.86274C8.19236 7.40463 7.76186 7.84314 7.23083 7.84314Z" fill="#663366"/>
<path id="Vector_4" d="M25.5 7.84314C24.969 7.84314 24.5385 7.40463 24.5385 6.86274V0.980392C24.5385 0.438503 24.969 0 25.5 0C26.031 0 26.4615 0.438503 26.4615 0.980392V6.86274C26.4615 7.40463 26.031 7.84314 25.5 7.84314Z" fill="#663366"/>
<path id="Vector_5" d="M43.7693 7.84314C43.2382 7.84314 42.8077 7.40463 42.8077 6.86274V0.980392C42.8077 0.438503 43.2382 0 43.7693 0C44.3003 0 44.7308 0.438503 44.7308 0.980392V6.86274C44.7308 7.40463 44.3003 7.84314 43.7693 7.84314Z" fill="#663366"/>
<path id="Vector_6" d="M35.1153 7.84314C34.5843 7.84314 34.1538 7.40463 34.1538 6.86274V0.980392C34.1538 0.438503 34.5843 0 35.1153 0C35.6464 0 36.0769 0.438503 36.0769 0.980392V6.86274C36.0769 7.40463 35.6464 7.84314 35.1153 7.84314Z" fill="#663366"/>
<path id="Vector_7" d="M15.8846 7.84314C15.3536 7.84314 14.9231 7.40463 14.9231 6.86274V0.980392C14.9231 0.438503 15.3536 0 15.8846 0C16.4157 0 16.8462 0.438503 16.8462 0.980392V6.86274C16.8462 7.40463 16.4157 7.84314 15.8846 7.84314Z" fill="#663366"/>
<path id="Vector_8" d="M13.9615 25.4902H8.19225C7.66122 25.4902 7.23071 25.0517 7.23071 24.5098V18.6275C7.23071 18.0856 7.66122 17.6471 8.19225 17.6471H13.9615C14.4925 17.6471 14.923 18.0856 14.923 18.6275V24.5098C14.923 25.0517 14.4925 25.4902 13.9615 25.4902ZM9.15379 23.5294H12.9999V19.6078H9.15379V23.5294Z" fill="#663366"/>
<path id="Vector_9" d="M23.577 25.4902H17.8077C17.2767 25.4902 16.8462 25.0517 16.8462 24.5098V18.6275C16.8462 18.0856 17.2767 17.6471 17.8077 17.6471H23.577C24.108 17.6471 24.5385 18.0856 24.5385 18.6275V24.5098C24.5385 25.0517 24.108 25.4902 23.577 25.4902ZM18.7693 23.5294H22.6154V19.6078H18.7693V23.5294Z" fill="#663366"/>
<path id="Vector_10" d="M33.1923 25.4902H27.4231C26.8921 25.4902 26.4615 25.0517 26.4615 24.5098V18.6275C26.4615 18.0856 26.8921 17.6471 27.4231 17.6471H33.1923C33.7233 17.6471 34.1539 18.0856 34.1539 18.6275V24.5098C34.1539 25.0517 33.7233 25.4902 33.1923 25.4902ZM28.3846 23.5294H32.2308V19.6078H28.3846V23.5294Z" fill="#663366"/>
<path id="Vector_11" d="M42.8077 25.4902H37.0384C36.5074 25.4902 36.0769 25.0517 36.0769 24.5098V18.6275C36.0769 18.0856 36.5074 17.6471 37.0384 17.6471H42.8077C43.3387 17.6471 43.7692 18.0856 43.7692 18.6275V24.5098C43.7692 25.0517 43.3387 25.4902 42.8077 25.4902ZM38 23.5294H41.8461V19.6078H38V23.5294Z" fill="#663366"/>
<path id="Vector_12" d="M13.9615 35.2941H8.19225C7.66122 35.2941 7.23071 34.8556 7.23071 34.3137V28.4314C7.23071 27.8895 7.66122 27.451 8.19225 27.451H13.9615C14.4925 27.451 14.923 27.8895 14.923 28.4314V34.3137C14.923 34.8556 14.4925 35.2941 13.9615 35.2941ZM9.15379 33.3333H12.9999V29.4118H9.15379V33.3333Z" fill="#663366"/>
<path id="Vector_13" d="M23.577 35.2941H17.8077C17.2767 35.2941 16.8462 34.8556 16.8462 34.3137V28.4314C16.8462 27.8895 17.2767 27.451 17.8077 27.451H23.577C24.108 27.451 24.5385 27.8895 24.5385 28.4314V34.3137C24.5385 34.8556 24.108 35.2941 23.577 35.2941ZM18.7693 33.3333H22.6154V29.4118H18.7693V33.3333Z" fill="#663366"/>
<path id="Vector_14" d="M33.1923 35.2941H27.4231C26.8921 35.2941 26.4615 34.8556 26.4615 34.3137V28.4314C26.4615 27.8895 26.8921 27.451 27.4231 27.451H33.1923C33.7233 27.451 34.1539 27.8895 34.1539 28.4314V34.3137C34.1539 34.8556 33.7233 35.2941 33.1923 35.2941ZM28.3846 33.3333H32.2308V29.4118H28.3846V33.3333Z" fill="#663366"/>
<path id="Vector_15" d="M42.8077 35.2941H37.0384C36.5074 35.2941 36.0769 34.8556 36.0769 34.3137V28.4314C36.0769 27.8895 36.5074 27.451 37.0384 27.451H42.8077C43.3387 27.451 43.7692 27.8895 43.7692 28.4314V34.3137C43.7692 34.8556 43.3387 35.2941 42.8077 35.2941ZM38 33.3333H41.8461V29.4118H38V33.3333Z" fill="#663366"/>
<path id="Vector_16" d="M13.9615 45.098H8.19225C7.66122 45.098 7.23071 44.6595 7.23071 44.1176V38.2353C7.23071 37.6934 7.66122 37.2549 8.19225 37.2549H13.9615C14.4925 37.2549 14.923 37.6934 14.923 38.2353V44.1176C14.923 44.6595 14.4925 45.098 13.9615 45.098ZM9.15379 43.1373H12.9999V39.2157H9.15379V43.1373Z" fill="#663366"/>
<path id="Vector_17" d="M23.577 45.098H17.8077C17.2767 45.098 16.8462 44.6595 16.8462 44.1176V38.2353C16.8462 37.6934 17.2767 37.2549 17.8077 37.2549H23.577C24.108 37.2549 24.5385 37.6934 24.5385 38.2353V44.1176C24.5385 44.6595 24.108 45.098 23.577 45.098ZM18.7693 43.1373H22.6154V39.2157H18.7693V43.1373Z" fill="#663366"/>
<path id="Vector_18" d="M33.1923 45.098H27.4231C26.8921 45.098 26.4615 44.6595 26.4615 44.1176V38.2353C26.4615 37.6934 26.8921 37.2549 27.4231 37.2549H33.1923C33.7233 37.2549 34.1539 37.6934 34.1539 38.2353V44.1176C34.1539 44.6595 33.7233 45.098 33.1923 45.098ZM28.3846 43.1373H32.2308V39.2157H28.3846V43.1373Z" fill="#663366"/>
<path id="Vector_19" d="M38 50C37.469 50 37.0385 49.5615 37.0385 49.0196V39.2157C37.0385 38.6738 37.469 38.2353 38 38.2353H49.5385C50.0695 38.2353 50.5 38.6738 50.5 39.2157C50.5 39.7576 50.0695 40.1961 49.5385 40.1961H38.9615V49.0196C38.9615 49.5615 38.531 50 38 50Z" fill="#663366"/>
</g>
</g>
</g>
<defs>
<clipPath id="clip0_50_1721">
<rect width="50" height="50" fill="white" transform="translate(0.5)"/>
</clipPath>
</defs>
</svg>
