<svg width="21" height="20" viewBox="0 0 21 20" fill="none" xmlns="http://www.w3.org/2000/svg">
<g id="icon1 1" clip-path="url(#clip0_842_2240)">
<g id="&#208;&#161;&#208;&#187;&#208;&#190;&#208;&#185; 2">
<g id="&#208;&#161;&#208;&#187;&#208;&#190;&#208;&#185; 1-2">
<g id="Group">
<path id="Vector" d="M10.4996 12.0466C8.27633 12.0466 6.47168 10.2326 6.47168 8.00935C6.47168 5.7861 8.27633 3.98145 10.4996 3.98145C12.7228 3.98145 14.5275 5.7861 14.5275 8.00935C14.5275 10.2326 12.7228 12.0466 10.4996 12.0466ZM10.4996 5.37679C9.04842 5.37679 7.86703 6.55819 7.86703 8.00935C7.86703 9.46051 9.04842 10.6512 10.4996 10.6512C11.9507 10.6512 13.1321 9.46982 13.1321 8.00935C13.1321 6.54889 11.9507 5.37679 10.4996 5.37679Z" fill="#7D2182"/>
<path id="Vector_2" d="M14.4442 20H6.55581C3.21628 20 0.5 17.2837 0.5 13.9442V6.05581C0.5 2.71628 3.21628 0 6.55581 0H14.4442C17.7837 0 20.5 2.71628 20.5 6.05581V13.9442C20.5 17.2837 17.7837 20 14.4442 20ZM6.55581 1.39535C3.98837 1.39535 1.89535 3.48837 1.89535 6.05581V13.9442C1.89535 16.5116 3.98837 18.6047 6.55581 18.6047H14.4442C17.0116 18.6047 19.1047 16.5116 19.1047 13.9442V6.05581C19.1047 3.48837 17.0116 1.39535 14.4442 1.39535H6.55581Z" fill="#7D2182"/>
<path id="Vector_3" d="M16.6952 19.5161H4.31378C4.03471 19.5161 3.77424 19.3766 3.6161 19.144C3.44866 18.8929 3.41145 18.5766 3.51378 18.2975C4.61145 15.3301 7.42075 13.3301 10.4998 13.3301C13.5789 13.3301 16.3882 15.3301 17.4859 18.3068C17.5882 18.5766 17.551 18.8929 17.3835 19.144C17.2254 19.3766 16.9649 19.5161 16.6952 19.5161ZM16.1835 18.7905C16.1835 18.7905 16.1835 18.7905 16.1835 18.7998C16.1835 18.7998 16.1835 18.7998 16.1835 18.7905ZM4.82541 18.7905C4.82541 18.7905 4.82541 18.7905 4.82541 18.7998C4.82541 18.7998 4.82541 18.7998 4.82541 18.7905ZM5.11378 18.1301H15.8859C14.844 16.0743 12.7603 14.7347 10.4998 14.7347C8.23936 14.7347 6.15564 16.0743 5.11378 18.1301Z" fill="#7D2182"/>
</g>
</g>
</g>
</g>
<defs>
<clipPath id="clip0_842_2240">
<rect width="20" height="20" fill="white" transform="translate(0.5)"/>
</clipPath>
</defs>
</svg>
