<svg width="46" height="46" viewBox="0 0 46 46" fill="none" xmlns="http://www.w3.org/2000/svg">
<g filter="url(#filter0_di_1274_3457)">
<rect x="3.25" y="2" width="40" height="40" rx="20" fill="white"/>
<rect x="3.75" y="2.5" width="39" height="39" rx="19.5" stroke="black" stroke-opacity="0.15"/>
</g>
<path d="M23.7524 29.2045L17.1814 22.6335C16.6572 22.1094 16.3078 21.5 16.1331 20.8054C15.9626 20.1108 15.9648 19.4205 16.1395 18.7344C16.3142 18.044 16.6615 17.4432 17.1814 16.9318C17.714 16.4077 18.3213 16.0604 19.0031 15.8899C19.6892 15.7152 20.3731 15.7152 21.055 15.8899C21.741 16.0646 22.3504 16.4119 22.8831 16.9318L23.7524 17.7756L24.6217 16.9318C25.1586 16.4119 25.768 16.0646 26.4498 15.8899C27.1317 15.7152 27.8135 15.7152 28.4953 15.8899C29.1814 16.0604 29.7907 16.4077 30.3234 16.9318C30.8433 17.4432 31.1906 18.044 31.3653 18.7344C31.54 19.4205 31.54 20.1108 31.3653 20.8054C31.1949 21.5 30.8476 22.1094 30.3234 22.6335L23.7524 29.2045Z" fill="#C9547E"/>
<defs>
<filter id="filter0_di_1274_3457" x="0.573376" y="0.215584" width="45.3532" height="45.3532" filterUnits="userSpaceOnUse" color-interpolation-filters="sRGB">
<feFlood flood-opacity="0" result="BackgroundImageFix"/>
<feColorMatrix in="SourceAlpha" type="matrix" values="0 0 0 0 0 0 0 0 0 0 0 0 0 0 0 0 0 0 127 0" result="hardAlpha"/>
<feOffset dy="0.892208"/>
<feGaussianBlur stdDeviation="1.33831"/>
<feColorMatrix type="matrix" values="0 0 0 0 0 0 0 0 0 0 0 0 0 0 0 0 0 0 0.2 0"/>
<feBlend mode="hard-light" in2="BackgroundImageFix" result="effect1_dropShadow_1274_3457"/>
<feBlend mode="normal" in="SourceGraphic" in2="effect1_dropShadow_1274_3457" result="shape"/>
<feColorMatrix in="SourceAlpha" type="matrix" values="0 0 0 0 0 0 0 0 0 0 0 0 0 0 0 0 0 0 127 0" result="hardAlpha"/>
<feOffset dx="-0.892208" dy="-2.67662"/>
<feComposite in2="hardAlpha" operator="arithmetic" k2="-1" k3="1"/>
<feColorMatrix type="matrix" values="0 0 0 0 0 0 0 0 0 0 0 0 0 0 0 0 0 0 0.1 0"/>
<feBlend mode="hard-light" in2="shape" result="effect2_innerShadow_1274_3457"/>
</filter>
</defs>
</svg>
