<svg width="51" height="50" viewBox="0 0 51 50" fill="none" xmlns="http://www.w3.org/2000/svg">
<path d="M25.5003 0C11.715 0 0.5 11.2151 0.5 25C0.5 38.7849 11.715 50 25.5003 50C39.2857 50 50.5 38.7849 50.5 25C50.5 11.2151 39.285 0 25.5003 0ZM25.5003 48.0706C12.7793 48.0706 2.42967 37.7215 2.42967 25.0003C2.42967 12.2792 12.779 1.92969 25.5003 1.92969C38.2217 1.92969 48.5703 12.2788 48.5703 25C48.5703 37.7212 38.2213 48.0706 25.5003 48.0706Z" fill="#663366"/>
<path d="M26.4648 3.8594H24.5352V7.71878H26.4648V3.8594Z" fill="#663366"/>
<path d="M15.3473 6.45122L14.5116 6.93372L16.4413 10.276L17.277 9.79354L15.3473 6.45122Z" fill="#663366"/>
<path d="M7.43318 14.0126L6.95068 14.8483L10.2933 16.7782L10.7758 15.9424L7.43318 14.0126Z" fill="#663366"/>
<path d="M8.21883 24.035H4.3595V25.9647H8.21883V24.035Z" fill="#663366"/>
<path d="M10.2911 33.2257L6.94824 35.155L7.4306 35.9908L10.7735 34.0616L10.2911 33.2257Z" fill="#663366"/>
<path d="M16.4416 39.72L14.5123 43.063L15.3481 43.5453L17.2774 40.2024L16.4416 39.72Z" fill="#663366"/>
<path d="M26.4648 42.2812H24.5352V46.1406H26.4648V42.2812Z" fill="#663366"/>
<path d="M46.6406 24.035H42.7812V25.9647H46.6406V24.035Z" fill="#663366"/>
<path d="M34.559 39.723L33.7233 40.2055L35.6531 43.5481L36.4888 43.0656L34.559 39.723Z" fill="#663366"/>
<path d="M43.5679 14.0165L40.225 15.9458L40.7073 16.7816L44.0502 14.8524L43.5679 14.0165Z" fill="#663366"/>
<path d="M40.7075 33.225L40.225 34.0607L43.5675 35.9906L44.05 35.1549L40.7075 33.225Z" fill="#663366"/>
<path d="M35.6498 6.44726L33.7207 9.78992L34.5565 10.2723L36.4856 6.92962L35.6498 6.44726Z" fill="#663366"/>
<path d="M27.839 27.1214C28.35 26.5584 28.6704 25.8183 28.6704 25C28.6704 23.5906 27.7394 22.407 26.465 21.996V11.2165H24.5354V21.996C23.2607 22.407 22.3297 23.5906 22.3297 25C22.3297 26.748 23.752 28.17 25.5004 28.17C25.7314 28.17 25.9554 28.142 26.1727 28.0947L29.144 33.2414L30.8157 32.2764L27.8394 27.121L27.839 27.1214ZM24.2594 25C24.2594 24.316 24.8164 23.7597 25.5004 23.7597C26.1844 23.7597 26.7407 24.316 26.7407 25C26.7407 25.684 26.1844 26.2404 25.5004 26.2404C24.8164 26.2404 24.2594 25.684 24.2594 25Z" fill="#663366"/>
</svg>
