<svg width="106" height="921" viewBox="0 0 106 921" fill="none" xmlns="http://www.w3.org/2000/svg">
<path d="M1 11.42L29 1.98L29 5.02L2.64 13.86L2.64 12.34L29 21.46L29 24.18L2.64 33.18L2.64 31.74L29 40.66L29 43.5L0.999999 34.06L0.999999 30.94L26 22.34L26 23.14L0.999999 14.5L1 11.42ZM0.759997 60.8937C0.759997 58.7871 1.10666 56.8271 1.8 55.0137C2.52 53.2271 3.52 51.6671 4.8 50.3337C6.10666 49.0271 7.61333 48.0004 9.32 47.2537C11.0533 46.5337 12.9467 46.1737 15 46.1737C17.0533 46.1737 18.9333 46.5337 20.64 47.2537C22.3733 48.0004 23.88 49.0271 25.16 50.3337C26.4667 51.6671 27.4667 53.2271 28.16 55.0138C28.88 56.8004 29.24 58.7604 29.24 60.8938C29.24 63.0004 28.88 64.9471 28.16 66.7338C27.4667 68.5204 26.48 70.0671 25.2 71.3738C23.92 72.7071 22.4133 73.7338 20.68 74.4538C18.9467 75.2004 17.0533 75.5738 15 75.5738C12.9467 75.5738 11.0533 75.2004 9.32 74.4538C7.58666 73.7338 6.08 72.7071 4.8 71.3738C3.52 70.0671 2.52 68.5204 1.8 66.7338C1.10666 64.9471 0.759997 63.0004 0.759997 60.8937ZM3.4 60.8937C3.4 62.5737 3.68 64.1204 4.24 65.5337C4.82666 66.9738 5.64 68.2137 6.68 69.2537C7.74666 70.3204 8.97333 71.1471 10.36 71.7338C11.7733 72.3204 13.32 72.6138 15 72.6138C16.68 72.6138 18.2133 72.3204 19.6 71.7338C21.0133 71.1471 22.24 70.3204 23.28 69.2538C24.3467 68.2138 25.16 66.9738 25.72 65.5338C26.3067 64.1204 26.6 62.5738 26.6 60.8938C26.6 59.2138 26.3067 57.6538 25.72 56.2137C25.16 54.7738 24.3467 53.5204 23.28 52.4538C22.24 51.4137 21.0133 50.5871 19.6 49.9737C18.2133 49.3871 16.68 49.0937 15 49.0937C13.3467 49.0937 11.8133 49.3871 10.4 49.9737C8.98666 50.5871 7.74666 51.4137 6.68 52.4537C5.64 53.5204 4.82666 54.7737 4.24 56.2137C3.68 57.6537 3.4 59.2137 3.4 60.8937ZM0.999996 82.2084L29 82.2084L29 84.6484L7.16 97.4484L7.16 96.1684L29 108.848L29 111.288L0.999995 111.288L0.999995 108.448L24.56 108.448L24.56 109.128L4.56 97.4484L4.56 96.0484L24.56 84.2884L24.56 85.0484L0.999996 85.0484L0.999996 82.2084ZM0.999995 115.932L29 128.732L29 131.652L0.999994 144.452L0.999994 141.332L27.28 129.572L27.28 130.772L0.999995 119.012L0.999995 115.932ZM8.47999 120.972L10.88 121.852L10.88 138.132L8.47999 139.012L8.47999 120.972ZM0.999994 149.083L29 149.083L29 151.523L4.67999 170.843L4.67999 169.563L29 169.563L29 172.483L0.999992 172.483L0.999993 170.043L25.32 150.763L25.32 152.043L0.999993 152.043L0.999994 149.083ZM0.999992 192.091L29 192.091L29 195.051L0.999991 195.051L0.999992 192.091ZM0.999991 204.162L29 204.162L29 206.602L4.67999 225.922L4.67999 224.642L29 224.642L29 227.562L0.99999 227.562L0.99999 225.122L25.32 205.842L25.32 207.122L0.999991 207.122L0.999991 204.162ZM0.999989 247.169L29 247.169L29 259.249C29 262.369 28.3733 264.783 27.12 266.489C25.8667 268.223 24.0933 269.089 21.8 269.089C20.28 269.089 19 268.729 17.96 268.009C16.92 267.316 16.1333 266.356 15.6 265.129C15.0667 263.929 14.8 262.609 14.8 261.169L15.76 261.849C15.76 263.636 15.48 265.169 14.92 266.449C14.3867 267.756 13.5733 268.769 12.48 269.489C11.4133 270.209 10.08 270.569 8.47999 270.569C6.10666 270.569 4.26666 269.689 2.95999 267.929C1.65332 266.196 0.999989 263.569 0.999989 260.049L0.999989 247.169ZM3.43999 250.129L3.43999 260.009C3.43999 262.463 3.85332 264.343 4.67999 265.649C5.53332 266.956 6.87999 267.609 8.71999 267.609C10.5333 267.609 11.8533 266.956 12.68 265.649C13.5333 264.343 13.96 262.463 13.96 260.009L13.96 249.809L16.4 249.809L16.4 259.049C16.4 261.289 16.8267 263.023 17.68 264.249C18.5333 265.503 19.8 266.129 21.48 266.129C23.1867 266.129 24.4533 265.503 25.28 264.249C26.1333 263.023 26.56 261.289 26.56 259.049L26.56 250.129L3.43999 250.129ZM0.759987 288.606C0.759988 285.032 1.78665 282.219 3.83999 280.166C5.89332 278.112 8.93332 277.086 12.96 277.086L29 277.086L29 280.046L13.08 280.046C9.77332 280.046 7.33332 280.792 5.75999 282.286C4.18665 283.779 3.39999 285.886 3.39999 288.606C3.39999 291.352 4.18665 293.472 5.75999 294.966C7.33332 296.459 9.77332 297.206 13.08 297.206L29 297.206L29 300.086L12.96 300.086C8.93332 300.086 5.89332 299.059 3.83999 297.006C1.78665 294.979 0.759987 292.179 0.759987 288.606ZM0.759986 316.725C0.759986 314.645 1.09332 312.645 1.75999 310.725C2.45332 308.832 3.33332 307.365 4.39999 306.325L6.67999 307.485C5.71999 308.472 4.90665 309.792 4.23999 311.445C3.59999 313.125 3.27999 314.885 3.27999 316.725C3.27999 318.485 3.49332 319.912 3.91999 321.005C4.37332 322.125 4.97332 322.939 5.71999 323.445C6.46665 323.979 7.29332 324.245 8.19999 324.245C9.29332 324.245 10.1733 323.925 10.84 323.285C11.5067 322.672 12.0267 321.859 12.4 320.845C12.8 319.832 13.1467 318.712 13.44 317.485C13.7333 316.259 14.04 315.032 14.36 313.805C14.7067 312.579 15.16 311.445 15.72 310.405C16.28 309.392 17.0133 308.565 17.92 307.925C18.8533 307.312 20.0667 307.005 21.56 307.005C22.9467 307.005 24.2133 307.365 25.36 308.085C26.5333 308.832 27.4667 309.965 28.16 311.485C28.88 313.005 29.24 314.952 29.24 317.325C29.24 318.899 29.0133 320.459 28.56 322.005C28.1333 323.552 27.5333 324.885 26.76 326.005L24.4 325.005C25.2 323.805 25.7867 322.525 26.16 321.165C26.5333 319.832 26.72 318.539 26.72 317.285C26.72 315.605 26.4933 314.219 26.04 313.125C25.5867 312.032 24.9733 311.219 24.2 310.685C23.4533 310.179 22.6 309.925 21.64 309.925C20.5467 309.925 19.6667 310.232 19 310.845C18.3333 311.485 17.8133 312.312 17.44 313.325C17.0667 314.365 16.7333 315.499 16.44 316.725C16.1467 317.952 15.8267 319.165 15.48 320.365C15.1333 321.592 14.68 322.712 14.12 323.725C13.5867 324.765 12.8667 325.592 11.96 326.205C11.0533 326.845 9.86665 327.165 8.39999 327.165C7.03999 327.165 5.77332 326.792 4.59999 326.045C3.45332 325.299 2.51999 324.152 1.79999 322.605C1.10665 321.085 0.759986 319.125 0.759986 316.725ZM0.999985 333.615L29 333.615L29 336.575L0.999985 336.575L0.999985 333.615ZM0.999985 345.685L29 345.685L29 348.125L4.67998 367.445L4.67998 366.165L29 366.165L29 369.085L0.999984 369.085L0.999984 366.645L25.32 347.365L25.32 348.645L0.999985 348.645L0.999985 345.685ZM16.48 380.864L16.48 395.664L13.96 395.664L13.96 380.864L16.48 380.864ZM3.55998 381.184L3.55998 398.024L0.999983 398.024L0.999983 378.224L29 378.224L29 397.424L26.44 397.424L26.44 381.184L3.55998 381.184ZM0.759982 412.702C0.759982 410.622 1.09332 408.622 1.75998 406.702C2.45332 404.809 3.33332 403.342 4.39998 402.302L6.67998 403.462C5.71998 404.449 4.90665 405.769 4.23998 407.422C3.59998 409.102 3.27998 410.862 3.27998 412.702C3.27998 414.462 3.49332 415.889 3.91998 416.982C4.37332 418.102 4.97332 418.915 5.71998 419.422C6.46665 419.955 7.29332 420.222 8.19998 420.222C9.29332 420.222 10.1733 419.902 10.84 419.262C11.5066 418.649 12.0266 417.835 12.4 416.822C12.8 415.809 13.1466 414.689 13.44 413.462C13.7333 412.235 14.04 411.009 14.36 409.782C14.7066 408.555 15.16 407.422 15.72 406.382C16.28 405.369 17.0133 404.542 17.92 403.902C18.8533 403.289 20.0666 402.982 21.56 402.982C22.9467 402.982 24.2133 403.342 25.36 404.062C26.5333 404.809 27.4667 405.942 28.16 407.462C28.88 408.982 29.24 410.929 29.24 413.302C29.24 414.875 29.0133 416.435 28.56 417.982C28.1333 419.529 27.5333 420.862 26.76 421.982L24.4 420.982C25.2 419.782 25.7866 418.502 26.16 417.142C26.5333 415.809 26.72 414.515 26.72 413.262C26.72 411.582 26.4933 410.195 26.04 409.102C25.5867 408.009 24.9733 407.195 24.2 406.662C23.4533 406.155 22.6 405.902 21.64 405.902C20.5467 405.902 19.6666 406.209 19 406.822C18.3333 407.462 17.8133 408.289 17.44 409.302C17.0666 410.342 16.7333 411.475 16.44 412.702C16.1466 413.929 15.8266 415.142 15.48 416.342C15.1333 417.569 14.68 418.689 14.12 419.702C13.5866 420.742 12.8666 421.569 11.96 422.182C11.0533 422.822 9.86665 423.142 8.39998 423.142C7.03998 423.142 5.77332 422.769 4.59998 422.022C3.45332 421.275 2.51998 420.129 1.79998 418.582C1.10665 417.062 0.759982 415.102 0.759982 412.702ZM0.759981 437.311C0.759981 435.231 1.09331 433.231 1.75998 431.311C2.45331 429.418 3.33331 427.951 4.39998 426.911L6.67998 428.071C5.71998 429.058 4.90665 430.378 4.23998 432.031C3.59998 433.711 3.27998 435.471 3.27998 437.311C3.27998 439.071 3.49331 440.498 3.91998 441.591C4.37331 442.711 4.97331 443.525 5.71998 444.031C6.46665 444.565 7.29331 444.831 8.19998 444.831C9.29331 444.831 10.1733 444.511 10.84 443.871C11.5066 443.258 12.0266 442.445 12.4 441.431C12.8 440.418 13.1466 439.298 13.44 438.071C13.7333 436.845 14.04 435.618 14.36 434.391C14.7066 433.165 15.16 432.031 15.72 430.991C16.28 429.978 17.0133 429.151 17.92 428.511C18.8533 427.898 20.0666 427.591 21.56 427.591C22.9466 427.591 24.2133 427.951 25.36 428.671C26.5333 429.418 27.4666 430.551 28.16 432.071C28.88 433.591 29.24 435.538 29.24 437.911C29.24 439.485 29.0133 441.045 28.56 442.591C28.1333 444.138 27.5333 445.471 26.76 446.591L24.4 445.591C25.2 444.391 25.7866 443.111 26.16 441.751C26.5333 440.418 26.72 439.125 26.72 437.871C26.72 436.191 26.4933 434.805 26.04 433.711C25.5866 432.618 24.9733 431.805 24.2 431.271C23.4533 430.765 22.6 430.511 21.64 430.511C20.5466 430.511 19.6666 430.818 19 431.431C18.3333 432.071 17.8133 432.898 17.44 433.911C17.0666 434.951 16.7333 436.085 16.44 437.311C16.1466 438.538 15.8266 439.751 15.48 440.951C15.1333 442.178 14.68 443.298 14.12 444.311C13.5866 445.351 12.8666 446.178 11.96 446.791C11.0533 447.431 9.86665 447.751 8.39998 447.751C7.03998 447.751 5.77331 447.378 4.59998 446.631C3.45331 445.885 2.51998 444.738 1.79998 443.191C1.10665 441.671 0.759981 439.711 0.759981 437.311Z" fill="#C13C69" fill-opacity="0.1"/>
<path d="M39 11.42L67 1.98L67 5.02L40.64 13.86L40.64 12.34L67 21.46L67 24.18L40.64 33.18L40.64 31.74L67 40.66L67 43.5L39 34.06L39 30.94L64 22.34L64 23.14L39 14.5L39 11.42ZM38.76 60.8937C38.76 58.7871 39.1067 56.8271 39.8 55.0137C40.52 53.2271 41.52 51.6671 42.8 50.3337C44.1067 49.0271 45.6133 48.0004 47.32 47.2537C49.0533 46.5337 50.9467 46.1737 53 46.1737C55.0533 46.1737 56.9333 46.5337 58.64 47.2537C60.3733 48.0004 61.88 49.0271 63.16 50.3337C64.4667 51.6671 65.4667 53.2271 66.16 55.0138C66.88 56.8004 67.24 58.7604 67.24 60.8938C67.24 63.0004 66.88 64.9471 66.16 66.7338C65.4667 68.5204 64.48 70.0671 63.2 71.3738C61.92 72.7071 60.4133 73.7338 58.68 74.4538C56.9467 75.2004 55.0533 75.5738 53 75.5738C50.9467 75.5738 49.0533 75.2004 47.32 74.4538C45.5867 73.7338 44.08 72.7071 42.8 71.3738C41.52 70.0671 40.52 68.5204 39.8 66.7338C39.1067 64.9471 38.76 63.0004 38.76 60.8937ZM41.4 60.8937C41.4 62.5737 41.68 64.1204 42.24 65.5337C42.8267 66.9738 43.64 68.2137 44.68 69.2537C45.7467 70.3204 46.9733 71.1471 48.36 71.7338C49.7733 72.3204 51.32 72.6138 53 72.6138C54.68 72.6138 56.2133 72.3204 57.6 71.7338C59.0133 71.1471 60.24 70.3204 61.28 69.2538C62.3467 68.2138 63.16 66.9738 63.72 65.5338C64.3067 64.1204 64.6 62.5738 64.6 60.8938C64.6 59.2138 64.3067 57.6538 63.72 56.2137C63.16 54.7738 62.3467 53.5204 61.28 52.4538C60.24 51.4137 59.0133 50.5871 57.6 49.9737C56.2133 49.3871 54.68 49.0937 53 49.0937C51.3467 49.0937 49.8133 49.3871 48.4 49.9737C46.9867 50.5871 45.7467 51.4137 44.68 52.4537C43.64 53.5204 42.8267 54.7737 42.24 56.2137C41.68 57.6537 41.4 59.2137 41.4 60.8937ZM39 82.2084L67 82.2084L67 84.6484L45.16 97.4484L45.16 96.1684L67 108.848L67 111.288L39 111.288L39 108.448L62.56 108.448L62.56 109.128L42.56 97.4484L42.56 96.0484L62.56 84.2884L62.56 85.0484L39 85.0484L39 82.2084ZM39 115.932L67 128.732L67 131.652L39 144.452L39 141.332L65.28 129.572L65.28 130.772L39 119.012L39 115.932ZM46.48 120.972L48.88 121.852L48.88 138.132L46.48 139.012L46.48 120.972ZM39 149.083L67 149.083L67 151.523L42.68 170.843L42.68 169.563L67 169.563L67 172.483L39 172.483L39 170.043L63.32 150.763L63.32 152.043L39 152.043L39 149.083ZM39 192.091L67 192.091L67 195.051L39 195.051L39 192.091ZM39 204.162L67 204.162L67 206.602L42.68 225.922L42.68 224.642L67 224.642L67 227.562L39 227.562L39 225.122L63.32 205.842L63.32 207.122L39 207.122L39 204.162ZM39 247.169L67 247.169L67 259.249C67 262.369 66.3733 264.783 65.12 266.489C63.8667 268.223 62.0933 269.089 59.8 269.089C58.28 269.089 57 268.729 55.96 268.009C54.92 267.316 54.1333 266.356 53.6 265.129C53.0667 263.929 52.8 262.609 52.8 261.169L53.76 261.849C53.76 263.636 53.48 265.169 52.92 266.449C52.3867 267.756 51.5733 268.769 50.48 269.489C49.4133 270.209 48.08 270.569 46.48 270.569C44.1067 270.569 42.2667 269.689 40.96 267.929C39.6533 266.196 39 263.569 39 260.049L39 247.169ZM41.44 250.129L41.44 260.009C41.44 262.463 41.8533 264.343 42.68 265.649C43.5333 266.956 44.88 267.609 46.72 267.609C48.5333 267.609 49.8533 266.956 50.68 265.649C51.5333 264.343 51.96 262.463 51.96 260.009L51.96 249.809L54.4 249.809L54.4 259.049C54.4 261.289 54.8267 263.023 55.68 264.249C56.5333 265.503 57.8 266.129 59.48 266.129C61.1867 266.129 62.4533 265.503 63.28 264.249C64.1333 263.023 64.56 261.289 64.56 259.049L64.56 250.129L41.44 250.129ZM38.76 288.606C38.76 285.032 39.7867 282.219 41.84 280.166C43.8933 278.112 46.9333 277.086 50.96 277.086L67 277.086L67 280.046L51.08 280.046C47.7733 280.046 45.3333 280.792 43.76 282.286C42.1867 283.779 41.4 285.886 41.4 288.606C41.4 291.352 42.1867 293.472 43.76 294.966C45.3333 296.459 47.7733 297.206 51.08 297.206L67 297.206L67 300.086L50.96 300.086C46.9333 300.086 43.8933 299.059 41.84 297.006C39.7867 294.979 38.76 292.179 38.76 288.606ZM38.76 316.725C38.76 314.645 39.0933 312.645 39.76 310.725C40.4533 308.832 41.3333 307.365 42.4 306.325L44.68 307.485C43.72 308.472 42.9067 309.792 42.24 311.445C41.6 313.125 41.28 314.885 41.28 316.725C41.28 318.485 41.4933 319.912 41.92 321.005C42.3733 322.125 42.9733 322.939 43.72 323.445C44.4667 323.979 45.2933 324.245 46.2 324.245C47.2933 324.245 48.1733 323.925 48.84 323.285C49.5067 322.672 50.0267 321.859 50.4 320.845C50.8 319.832 51.1467 318.712 51.44 317.485C51.7333 316.259 52.04 315.032 52.36 313.805C52.7067 312.579 53.16 311.445 53.72 310.405C54.28 309.392 55.0133 308.565 55.92 307.925C56.8533 307.312 58.0667 307.005 59.56 307.005C60.9467 307.005 62.2133 307.365 63.36 308.085C64.5333 308.832 65.4667 309.965 66.16 311.485C66.88 313.005 67.24 314.952 67.24 317.325C67.24 318.899 67.0133 320.459 66.56 322.005C66.1333 323.552 65.5333 324.885 64.76 326.005L62.4 325.005C63.2 323.805 63.7867 322.525 64.16 321.165C64.5333 319.832 64.72 318.539 64.72 317.285C64.72 315.605 64.4933 314.219 64.04 313.125C63.5867 312.032 62.9733 311.219 62.2 310.685C61.4533 310.179 60.6 309.925 59.64 309.925C58.5467 309.925 57.6667 310.232 57 310.845C56.3333 311.485 55.8133 312.312 55.44 313.325C55.0667 314.365 54.7333 315.499 54.44 316.725C54.1467 317.952 53.8267 319.165 53.48 320.365C53.1333 321.592 52.68 322.712 52.12 323.725C51.5867 324.765 50.8667 325.592 49.96 326.205C49.0533 326.845 47.8667 327.165 46.4 327.165C45.04 327.165 43.7733 326.792 42.6 326.045C41.4533 325.299 40.52 324.152 39.8 322.605C39.1067 321.085 38.76 319.125 38.76 316.725ZM39 333.615L67 333.615L67 336.575L39 336.575L39 333.615ZM39 345.685L67 345.685L67 348.125L42.68 367.445L42.68 366.165L67 366.165L67 369.085L39 369.085L39 366.645L63.32 347.365L63.32 348.645L39 348.645L39 345.685ZM54.48 380.864L54.48 395.664L51.96 395.664L51.96 380.864L54.48 380.864ZM41.56 381.184L41.56 398.024L39 398.024L39 378.224L67 378.224L67 397.424L64.44 397.424L64.44 381.184L41.56 381.184ZM38.76 412.702C38.76 410.622 39.0933 408.622 39.76 406.702C40.4533 404.809 41.3333 403.342 42.4 402.302L44.68 403.462C43.72 404.449 42.9066 405.769 42.24 407.422C41.6 409.102 41.28 410.862 41.28 412.702C41.28 414.462 41.4933 415.889 41.92 416.982C42.3733 418.102 42.9733 418.915 43.72 419.422C44.4666 419.955 45.2933 420.222 46.2 420.222C47.2933 420.222 48.1733 419.902 48.84 419.262C49.5066 418.649 50.0266 417.835 50.4 416.822C50.8 415.809 51.1466 414.689 51.44 413.462C51.7333 412.235 52.04 411.009 52.36 409.782C52.7066 408.555 53.16 407.422 53.72 406.382C54.28 405.369 55.0133 404.542 55.92 403.902C56.8533 403.289 58.0666 402.982 59.56 402.982C60.9467 402.982 62.2133 403.342 63.36 404.062C64.5333 404.809 65.4667 405.942 66.16 407.462C66.88 408.982 67.24 410.929 67.24 413.302C67.24 414.875 67.0133 416.435 66.56 417.982C66.1333 419.529 65.5333 420.862 64.76 421.982L62.4 420.982C63.2 419.782 63.7866 418.502 64.16 417.142C64.5333 415.809 64.72 414.515 64.72 413.262C64.72 411.582 64.4933 410.195 64.04 409.102C63.5867 408.009 62.9733 407.195 62.2 406.662C61.4533 406.155 60.6 405.902 59.64 405.902C58.5467 405.902 57.6666 406.209 57 406.822C56.3333 407.462 55.8133 408.289 55.44 409.302C55.0666 410.342 54.7333 411.475 54.44 412.702C54.1466 413.929 53.8266 415.142 53.48 416.342C53.1333 417.569 52.68 418.689 52.12 419.702C51.5866 420.742 50.8666 421.569 49.96 422.182C49.0533 422.822 47.8666 423.142 46.4 423.142C45.04 423.142 43.7733 422.769 42.6 422.022C41.4533 421.275 40.52 420.129 39.8 418.582C39.1066 417.062 38.76 415.102 38.76 412.702ZM38.76 437.311C38.76 435.231 39.0933 433.231 39.76 431.311C40.4533 429.418 41.3333 427.951 42.4 426.911L44.68 428.071C43.72 429.058 42.9066 430.378 42.24 432.031C41.6 433.711 41.28 435.471 41.28 437.311C41.28 439.071 41.4933 440.498 41.92 441.591C42.3733 442.711 42.9733 443.525 43.72 444.031C44.4666 444.565 45.2933 444.831 46.2 444.831C47.2933 444.831 48.1733 444.511 48.84 443.871C49.5066 443.258 50.0266 442.445 50.4 441.431C50.8 440.418 51.1466 439.298 51.44 438.071C51.7333 436.845 52.04 435.618 52.36 434.391C52.7066 433.165 53.16 432.031 53.72 430.991C54.28 429.978 55.0133 429.151 55.92 428.511C56.8533 427.898 58.0666 427.591 59.56 427.591C60.9466 427.591 62.2133 427.951 63.36 428.671C64.5333 429.418 65.4666 430.551 66.16 432.071C66.88 433.591 67.24 435.538 67.24 437.911C67.24 439.485 67.0133 441.045 66.56 442.591C66.1333 444.138 65.5333 445.471 64.76 446.591L62.4 445.591C63.2 444.391 63.7866 443.111 64.16 441.751C64.5333 440.418 64.72 439.125 64.72 437.871C64.72 436.191 64.4933 434.805 64.04 433.711C63.5866 432.618 62.9733 431.805 62.2 431.271C61.4533 430.765 60.6 430.511 59.64 430.511C58.5466 430.511 57.6666 430.818 57 431.431C56.3333 432.071 55.8133 432.898 55.44 433.911C55.0666 434.951 54.7333 436.085 54.44 437.311C54.1466 438.538 53.8266 439.751 53.48 440.951C53.1333 442.178 52.68 443.298 52.12 444.311C51.5866 445.351 50.8666 446.178 49.96 446.791C49.0533 447.431 47.8666 447.751 46.4 447.751C45.04 447.751 43.7733 447.378 42.6 446.631C41.4533 445.885 40.52 444.738 39.8 443.191C39.1066 441.671 38.76 439.711 38.76 437.311Z" fill="#C13C69" fill-opacity="0.1"/>
<path d="M77 11.42L105 1.98L105 5.02L78.64 13.86L78.64 12.34L105 21.46L105 24.18L78.64 33.18L78.64 31.74L105 40.66L105 43.5L77 34.06L77 30.94L102 22.34L102 23.14L77 14.5L77 11.42ZM76.76 60.8937C76.76 58.7871 77.1067 56.8271 77.8 55.0137C78.52 53.2271 79.52 51.6671 80.8 50.3337C82.1067 49.0271 83.6133 48.0004 85.32 47.2537C87.0533 46.5337 88.9467 46.1737 91 46.1737C93.0533 46.1737 94.9333 46.5337 96.64 47.2537C98.3733 48.0004 99.88 49.0271 101.16 50.3337C102.467 51.6671 103.467 53.2271 104.16 55.0138C104.88 56.8004 105.24 58.7604 105.24 60.8938C105.24 63.0004 104.88 64.9471 104.16 66.7338C103.467 68.5204 102.48 70.0671 101.2 71.3738C99.92 72.7071 98.4133 73.7338 96.68 74.4538C94.9467 75.2004 93.0533 75.5738 91 75.5738C88.9467 75.5738 87.0533 75.2004 85.32 74.4538C83.5867 73.7338 82.08 72.7071 80.8 71.3738C79.52 70.0671 78.52 68.5204 77.8 66.7338C77.1067 64.9471 76.76 63.0004 76.76 60.8937ZM79.4 60.8937C79.4 62.5737 79.68 64.1204 80.24 65.5337C80.8267 66.9738 81.64 68.2137 82.68 69.2537C83.7467 70.3204 84.9733 71.1471 86.36 71.7338C87.7733 72.3204 89.32 72.6138 91 72.6138C92.68 72.6138 94.2133 72.3204 95.6 71.7338C97.0133 71.1471 98.24 70.3204 99.28 69.2538C100.347 68.2138 101.16 66.9738 101.72 65.5338C102.307 64.1204 102.6 62.5738 102.6 60.8938C102.6 59.2138 102.307 57.6538 101.72 56.2137C101.16 54.7738 100.347 53.5204 99.28 52.4538C98.24 51.4137 97.0133 50.5871 95.6 49.9737C94.2133 49.3871 92.68 49.0937 91 49.0937C89.3467 49.0937 87.8133 49.3871 86.4 49.9737C84.9867 50.5871 83.7467 51.4137 82.68 52.4537C81.64 53.5204 80.8267 54.7737 80.24 56.2137C79.68 57.6537 79.4 59.2137 79.4 60.8937ZM77 82.2084L105 82.2084L105 84.6484L83.16 97.4484L83.16 96.1684L105 108.848L105 111.288L77 111.288L77 108.448L100.56 108.448L100.56 109.128L80.56 97.4484L80.56 96.0484L100.56 84.2884L100.56 85.0484L77 85.0484L77 82.2084ZM77 115.932L105 128.732L105 131.652L77 144.452L77 141.332L103.28 129.572L103.28 130.772L77 119.012L77 115.932ZM84.48 120.972L86.88 121.852L86.88 138.132L84.48 139.012L84.48 120.972ZM77 149.083L105 149.083L105 151.523L80.68 170.843L80.68 169.563L105 169.563L105 172.483L77 172.483L77 170.043L101.32 150.763L101.32 152.043L77 152.043L77 149.083ZM77 192.091L105 192.091L105 195.051L77 195.051L77 192.091ZM77 204.162L105 204.162L105 206.602L80.68 225.922L80.68 224.642L105 224.642L105 227.562L77 227.562L77 225.122L101.32 205.842L101.32 207.122L77 207.122L77 204.162ZM77 247.169L105 247.169L105 259.249C105 262.369 104.373 264.783 103.12 266.489C101.867 268.223 100.093 269.089 97.8 269.089C96.28 269.089 95 268.729 93.96 268.009C92.92 267.316 92.1333 266.356 91.6 265.129C91.0667 263.929 90.8 262.609 90.8 261.169L91.76 261.849C91.76 263.636 91.48 265.169 90.92 266.449C90.3867 267.756 89.5733 268.769 88.48 269.489C87.4133 270.209 86.08 270.569 84.48 270.569C82.1067 270.569 80.2667 269.689 78.96 267.929C77.6533 266.196 77 263.569 77 260.049L77 247.169ZM79.44 250.129L79.44 260.009C79.44 262.463 79.8533 264.343 80.68 265.649C81.5333 266.956 82.88 267.609 84.72 267.609C86.5333 267.609 87.8533 266.956 88.68 265.649C89.5333 264.343 89.96 262.463 89.96 260.009L89.96 249.809L92.4 249.809L92.4 259.049C92.4 261.289 92.8267 263.023 93.68 264.249C94.5333 265.503 95.8 266.129 97.48 266.129C99.1867 266.129 100.453 265.503 101.28 264.249C102.133 263.023 102.56 261.289 102.56 259.049L102.56 250.129L79.44 250.129ZM76.76 288.606C76.76 285.032 77.7867 282.219 79.84 280.166C81.8933 278.112 84.9333 277.086 88.96 277.086L105 277.086L105 280.046L89.08 280.046C85.7733 280.046 83.3333 280.792 81.76 282.286C80.1867 283.779 79.4 285.886 79.4 288.606C79.4 291.352 80.1867 293.472 81.76 294.966C83.3333 296.459 85.7733 297.206 89.08 297.206L105 297.206L105 300.086L88.96 300.086C84.9333 300.086 81.8933 299.059 79.84 297.006C77.7867 294.979 76.76 292.179 76.76 288.606ZM76.76 316.725C76.76 314.645 77.0933 312.645 77.76 310.725C78.4533 308.832 79.3333 307.365 80.4 306.325L82.68 307.485C81.72 308.472 80.9067 309.792 80.24 311.445C79.6 313.125 79.28 314.885 79.28 316.725C79.28 318.485 79.4933 319.912 79.92 321.005C80.3733 322.125 80.9733 322.939 81.72 323.445C82.4667 323.979 83.2933 324.245 84.2 324.245C85.2933 324.245 86.1733 323.925 86.84 323.285C87.5067 322.672 88.0267 321.859 88.4 320.845C88.8 319.832 89.1467 318.712 89.44 317.485C89.7333 316.259 90.04 315.032 90.36 313.805C90.7067 312.579 91.16 311.445 91.72 310.405C92.28 309.392 93.0133 308.565 93.92 307.925C94.8533 307.312 96.0667 307.005 97.56 307.005C98.9467 307.005 100.213 307.365 101.36 308.085C102.533 308.832 103.467 309.965 104.16 311.485C104.88 313.005 105.24 314.952 105.24 317.325C105.24 318.899 105.013 320.459 104.56 322.005C104.133 323.552 103.533 324.885 102.76 326.005L100.4 325.005C101.2 323.805 101.787 322.525 102.16 321.165C102.533 319.832 102.72 318.539 102.72 317.285C102.72 315.605 102.493 314.219 102.04 313.125C101.587 312.032 100.973 311.219 100.2 310.685C99.4533 310.179 98.6 309.925 97.64 309.925C96.5467 309.925 95.6667 310.232 95 310.845C94.3333 311.485 93.8133 312.312 93.44 313.325C93.0667 314.365 92.7333 315.499 92.44 316.725C92.1467 317.952 91.8267 319.165 91.48 320.365C91.1333 321.592 90.68 322.712 90.12 323.725C89.5867 324.765 88.8667 325.592 87.96 326.205C87.0533 326.845 85.8667 327.165 84.4 327.165C83.04 327.165 81.7733 326.792 80.6 326.045C79.4533 325.299 78.52 324.152 77.8 322.605C77.1067 321.085 76.76 319.125 76.76 316.725ZM77 333.615L105 333.615L105 336.575L77 336.575L77 333.615ZM77 345.685L105 345.685L105 348.125L80.68 367.445L80.68 366.165L105 366.165L105 369.085L77 369.085L77 366.645L101.32 347.365L101.32 348.645L77 348.645L77 345.685ZM92.48 380.864L92.48 395.664L89.96 395.664L89.96 380.864L92.48 380.864ZM79.56 381.184L79.56 398.024L77 398.024L77 378.224L105 378.224L105 397.424L102.44 397.424L102.44 381.184L79.56 381.184ZM76.76 412.702C76.76 410.622 77.0933 408.622 77.76 406.702C78.4533 404.809 79.3333 403.342 80.4 402.302L82.68 403.462C81.72 404.449 80.9066 405.769 80.24 407.422C79.6 409.102 79.28 410.862 79.28 412.702C79.28 414.462 79.4933 415.889 79.92 416.982C80.3733 418.102 80.9733 418.915 81.72 419.422C82.4666 419.955 83.2933 420.222 84.2 420.222C85.2933 420.222 86.1733 419.902 86.84 419.262C87.5066 418.649 88.0266 417.835 88.4 416.822C88.8 415.809 89.1466 414.689 89.44 413.462C89.7333 412.235 90.04 411.009 90.36 409.782C90.7066 408.555 91.16 407.422 91.72 406.382C92.28 405.369 93.0133 404.542 93.92 403.902C94.8533 403.289 96.0666 402.982 97.56 402.982C98.9467 402.982 100.213 403.342 101.36 404.062C102.533 404.809 103.467 405.942 104.16 407.462C104.88 408.982 105.24 410.929 105.24 413.302C105.24 414.875 105.013 416.435 104.56 417.982C104.133 419.529 103.533 420.862 102.76 421.982L100.4 420.982C101.2 419.782 101.787 418.502 102.16 417.142C102.533 415.809 102.72 414.515 102.72 413.262C102.72 411.582 102.493 410.195 102.04 409.102C101.587 408.009 100.973 407.195 100.2 406.662C99.4533 406.155 98.6 405.902 97.64 405.902C96.5467 405.902 95.6666 406.209 95 406.822C94.3333 407.462 93.8133 408.289 93.44 409.302C93.0666 410.342 92.7333 411.475 92.44 412.702C92.1466 413.929 91.8266 415.142 91.48 416.342C91.1333 417.569 90.68 418.689 90.12 419.702C89.5866 420.742 88.8666 421.569 87.96 422.182C87.0533 422.822 85.8666 423.142 84.4 423.142C83.04 423.142 81.7733 422.769 80.6 422.022C79.4533 421.275 78.52 420.129 77.8 418.582C77.1066 417.062 76.76 415.102 76.76 412.702ZM76.76 437.311C76.76 435.231 77.0933 433.231 77.76 431.311C78.4533 429.418 79.3333 427.951 80.4 426.911L82.68 428.071C81.72 429.058 80.9066 430.378 80.24 432.031C79.6 433.711 79.28 435.471 79.28 437.311C79.28 439.071 79.4933 440.498 79.92 441.591C80.3733 442.711 80.9733 443.525 81.72 444.031C82.4666 444.565 83.2933 444.831 84.2 444.831C85.2933 444.831 86.1733 444.511 86.84 443.871C87.5066 443.258 88.0266 442.445 88.4 441.431C88.8 440.418 89.1466 439.298 89.44 438.071C89.7333 436.845 90.04 435.618 90.36 434.391C90.7066 433.165 91.16 432.031 91.72 430.991C92.28 429.978 93.0133 429.151 93.92 428.511C94.8533 427.898 96.0666 427.591 97.56 427.591C98.9466 427.591 100.213 427.951 101.36 428.671C102.533 429.418 103.467 430.551 104.16 432.071C104.88 433.591 105.24 435.538 105.24 437.911C105.24 439.485 105.013 441.045 104.56 442.591C104.133 444.138 103.533 445.471 102.76 446.591L100.4 445.591C101.2 444.391 101.787 443.111 102.16 441.751C102.533 440.418 102.72 439.125 102.72 437.871C102.72 436.191 102.493 434.805 102.04 433.711C101.587 432.618 100.973 431.805 100.2 431.271C99.4533 430.765 98.6 430.511 97.64 430.511C96.5466 430.511 95.6666 430.818 95 431.431C94.3333 432.071 93.8133 432.898 93.44 433.911C93.0666 434.951 92.7333 436.085 92.44 437.311C92.1466 438.538 91.8266 439.751 91.48 440.951C91.1333 442.178 90.68 443.298 90.12 444.311C89.5866 445.351 88.8666 446.178 87.96 446.791C87.0533 447.431 85.8666 447.751 84.4 447.751C83.04 447.751 81.7733 447.378 80.6 446.631C79.4533 445.885 78.52 444.738 77.8 443.191C77.1066 441.671 76.76 439.711 76.76 437.311Z" fill="#C13C69" fill-opacity="0.1"/>
<path d="M1 481.42L29 471.98L29 475.02L2.64 483.86L2.64 482.34L29 491.46L29 494.18L2.64 503.18L2.64 501.74L29 510.66L29 513.5L0.999999 504.06L0.999999 500.94L26 492.34L26 493.14L0.999999 484.5L1 481.42ZM0.759997 530.894C0.759997 528.787 1.10666 526.827 1.8 525.014C2.52 523.227 3.52 521.667 4.8 520.334C6.10666 519.027 7.61333 518 9.32 517.254C11.0533 516.534 12.9467 516.174 15 516.174C17.0533 516.174 18.9333 516.534 20.64 517.254C22.3733 518 23.88 519.027 25.16 520.334C26.4667 521.667 27.4667 523.227 28.16 525.014C28.88 526.8 29.24 528.76 29.24 530.894C29.24 533 28.88 534.947 28.16 536.734C27.4667 538.52 26.48 540.067 25.2 541.374C23.92 542.707 22.4133 543.734 20.68 544.454C18.9467 545.2 17.0533 545.574 15 545.574C12.9467 545.574 11.0533 545.2 9.32 544.454C7.58666 543.734 6.08 542.707 4.8 541.374C3.52 540.067 2.52 538.52 1.8 536.734C1.10666 534.947 0.759997 533 0.759997 530.894ZM3.4 530.894C3.4 532.574 3.68 534.12 4.24 535.534C4.82666 536.974 5.64 538.214 6.68 539.254C7.74666 540.32 8.97333 541.147 10.36 541.734C11.7733 542.32 13.32 542.614 15 542.614C16.68 542.614 18.2133 542.32 19.6 541.734C21.0133 541.147 22.24 540.32 23.28 539.254C24.3467 538.214 25.16 536.974 25.72 535.534C26.3067 534.12 26.6 532.574 26.6 530.894C26.6 529.214 26.3067 527.654 25.72 526.214C25.16 524.774 24.3467 523.52 23.28 522.454C22.24 521.414 21.0133 520.587 19.6 519.974C18.2133 519.387 16.68 519.094 15 519.094C13.3467 519.094 11.8133 519.387 10.4 519.974C8.98666 520.587 7.74666 521.414 6.68 522.454C5.64 523.52 4.82666 524.774 4.24 526.214C3.68 527.654 3.4 529.214 3.4 530.894ZM0.999996 552.208L29 552.208L29 554.648L7.16 567.448L7.16 566.168L29 578.848L29 581.288L0.999995 581.288L0.999995 578.448L24.56 578.448L24.56 579.128L4.56 567.448L4.56 566.048L24.56 554.288L24.56 555.048L0.999996 555.048L0.999996 552.208ZM0.999995 585.932L29 598.732L29 601.652L0.999994 614.452L0.999994 611.332L27.28 599.572L27.28 600.772L0.999995 589.012L0.999995 585.932ZM8.47999 590.972L10.88 591.852L10.88 608.132L8.47999 609.012L8.47999 590.972ZM0.999994 619.083L29 619.083L29 621.523L4.67999 640.843L4.67999 639.563L29 639.563L29 642.483L0.999992 642.483L0.999993 640.043L25.32 620.763L25.32 622.043L0.999993 622.043L0.999994 619.083ZM0.999992 662.091L29 662.091L29 665.051L0.999991 665.051L0.999992 662.091ZM0.999991 674.162L29 674.162L29 676.602L4.67999 695.922L4.67999 694.642L29 694.642L29 697.562L0.99999 697.562L0.99999 695.122L25.32 675.842L25.32 677.122L0.999991 677.122L0.999991 674.162ZM0.999989 717.169L29 717.169L29 729.249C29 732.369 28.3733 734.783 27.12 736.489C25.8667 738.223 24.0933 739.089 21.8 739.089C20.28 739.089 19 738.729 17.96 738.009C16.92 737.316 16.1333 736.356 15.6 735.129C15.0667 733.929 14.8 732.609 14.8 731.169L15.76 731.849C15.76 733.636 15.48 735.169 14.92 736.449C14.3867 737.756 13.5733 738.769 12.48 739.489C11.4133 740.209 10.08 740.569 8.47999 740.569C6.10666 740.569 4.26666 739.689 2.95999 737.929C1.65332 736.196 0.999989 733.569 0.999989 730.049L0.999989 717.169ZM3.43999 720.129L3.43999 730.009C3.43999 732.463 3.85332 734.343 4.67999 735.649C5.53332 736.956 6.87999 737.609 8.71999 737.609C10.5333 737.609 11.8533 736.956 12.68 735.649C13.5333 734.343 13.96 732.463 13.96 730.009L13.96 719.809L16.4 719.809L16.4 729.049C16.4 731.289 16.8267 733.023 17.68 734.249C18.5333 735.503 19.8 736.129 21.48 736.129C23.1867 736.129 24.4533 735.503 25.28 734.249C26.1333 733.023 26.56 731.289 26.56 729.049L26.56 720.129L3.43999 720.129ZM0.759987 758.606C0.759988 755.032 1.78665 752.219 3.83999 750.166C5.89332 748.112 8.93332 747.086 12.96 747.086L29 747.086L29 750.046L13.08 750.046C9.77332 750.046 7.33332 750.792 5.75999 752.286C4.18665 753.779 3.39999 755.886 3.39999 758.606C3.39999 761.352 4.18665 763.472 5.75999 764.966C7.33332 766.459 9.77332 767.206 13.08 767.206L29 767.206L29 770.086L12.96 770.086C8.93332 770.086 5.89332 769.059 3.83999 767.006C1.78665 764.979 0.759987 762.179 0.759987 758.606ZM0.759986 786.725C0.759986 784.645 1.09332 782.645 1.75999 780.725C2.45332 778.832 3.33332 777.365 4.39999 776.325L6.67999 777.485C5.71999 778.472 4.90665 779.792 4.23999 781.445C3.59999 783.125 3.27999 784.885 3.27999 786.725C3.27999 788.485 3.49332 789.912 3.91999 791.005C4.37332 792.125 4.97332 792.939 5.71999 793.445C6.46665 793.979 7.29332 794.245 8.19999 794.245C9.29332 794.245 10.1733 793.925 10.84 793.285C11.5067 792.672 12.0267 791.859 12.4 790.845C12.8 789.832 13.1467 788.712 13.44 787.485C13.7333 786.259 14.04 785.032 14.36 783.805C14.7067 782.579 15.16 781.445 15.72 780.405C16.28 779.392 17.0133 778.565 17.92 777.925C18.8533 777.312 20.0667 777.005 21.56 777.005C22.9467 777.005 24.2133 777.365 25.36 778.085C26.5333 778.832 27.4667 779.965 28.16 781.485C28.88 783.005 29.24 784.952 29.24 787.325C29.24 788.899 29.0133 790.459 28.56 792.005C28.1333 793.552 27.5333 794.885 26.76 796.005L24.4 795.005C25.2 793.805 25.7867 792.525 26.16 791.165C26.5333 789.832 26.72 788.539 26.72 787.285C26.72 785.605 26.4933 784.219 26.04 783.125C25.5867 782.032 24.9733 781.219 24.2 780.685C23.4533 780.179 22.6 779.925 21.64 779.925C20.5467 779.925 19.6667 780.232 19 780.845C18.3333 781.485 17.8133 782.312 17.44 783.325C17.0667 784.365 16.7333 785.499 16.44 786.725C16.1467 787.952 15.8267 789.165 15.48 790.365C15.1333 791.592 14.68 792.712 14.12 793.725C13.5867 794.765 12.8667 795.592 11.96 796.205C11.0533 796.845 9.86665 797.165 8.39999 797.165C7.03999 797.165 5.77332 796.792 4.59999 796.045C3.45332 795.299 2.51999 794.152 1.79999 792.605C1.10665 791.085 0.759986 789.125 0.759986 786.725ZM0.999985 803.615L29 803.615L29 806.575L0.999985 806.575L0.999985 803.615ZM0.999985 815.685L29 815.685L29 818.125L4.67998 837.445L4.67998 836.165L29 836.165L29 839.085L0.999984 839.085L0.999984 836.645L25.32 817.365L25.32 818.645L0.999985 818.645L0.999985 815.685ZM16.48 850.864L16.48 865.664L13.96 865.664L13.96 850.864L16.48 850.864ZM3.55998 851.184L3.55998 868.024L0.999983 868.024L0.999983 848.224L29 848.224L29 867.424L26.44 867.424L26.44 851.184L3.55998 851.184ZM0.759982 882.702C0.759982 880.622 1.09332 878.622 1.75998 876.702C2.45332 874.809 3.33332 873.342 4.39998 872.302L6.67998 873.462C5.71998 874.449 4.90665 875.769 4.23998 877.422C3.59998 879.102 3.27998 880.862 3.27998 882.702C3.27998 884.462 3.49332 885.889 3.91998 886.982C4.37332 888.102 4.97332 888.915 5.71998 889.422C6.46665 889.955 7.29332 890.222 8.19998 890.222C9.29332 890.222 10.1733 889.902 10.84 889.262C11.5066 888.649 12.0266 887.835 12.4 886.822C12.8 885.809 13.1466 884.689 13.44 883.462C13.7333 882.235 14.04 881.009 14.36 879.782C14.7066 878.555 15.16 877.422 15.72 876.382C16.28 875.369 17.0133 874.542 17.92 873.902C18.8533 873.289 20.0666 872.982 21.56 872.982C22.9467 872.982 24.2133 873.342 25.36 874.062C26.5333 874.809 27.4667 875.942 28.16 877.462C28.88 878.982 29.24 880.929 29.24 883.302C29.24 884.875 29.0133 886.435 28.56 887.982C28.1333 889.529 27.5333 890.862 26.76 891.982L24.4 890.982C25.2 889.782 25.7866 888.502 26.16 887.142C26.5333 885.809 26.72 884.515 26.72 883.262C26.72 881.582 26.4933 880.195 26.04 879.102C25.5867 878.009 24.9733 877.195 24.2 876.662C23.4533 876.155 22.6 875.902 21.64 875.902C20.5467 875.902 19.6666 876.209 19 876.822C18.3333 877.462 17.8133 878.289 17.44 879.302C17.0666 880.342 16.7333 881.475 16.44 882.702C16.1466 883.929 15.8266 885.142 15.48 886.342C15.1333 887.569 14.68 888.689 14.12 889.702C13.5866 890.742 12.8666 891.569 11.96 892.182C11.0533 892.822 9.86665 893.142 8.39998 893.142C7.03998 893.142 5.77332 892.769 4.59998 892.022C3.45332 891.275 2.51998 890.129 1.79998 888.582C1.10665 887.062 0.759982 885.102 0.759982 882.702ZM0.759981 907.311C0.759981 905.231 1.09331 903.231 1.75998 901.311C2.45331 899.418 3.33331 897.951 4.39998 896.911L6.67998 898.071C5.71998 899.058 4.90665 900.378 4.23998 902.031C3.59998 903.711 3.27998 905.471 3.27998 907.311C3.27998 909.071 3.49331 910.498 3.91998 911.591C4.37331 912.711 4.97331 913.525 5.71998 914.031C6.46665 914.565 7.29331 914.831 8.19998 914.831C9.29331 914.831 10.1733 914.511 10.84 913.871C11.5066 913.258 12.0266 912.445 12.4 911.431C12.8 910.418 13.1466 909.298 13.44 908.071C13.7333 906.845 14.04 905.618 14.36 904.391C14.7066 903.165 15.16 902.031 15.72 900.991C16.28 899.978 17.0133 899.151 17.92 898.511C18.8533 897.898 20.0666 897.591 21.56 897.591C22.9466 897.591 24.2133 897.951 25.36 898.671C26.5333 899.418 27.4666 900.551 28.16 902.071C28.88 903.591 29.24 905.538 29.24 907.911C29.24 909.485 29.0133 911.045 28.56 912.591C28.1333 914.138 27.5333 915.471 26.76 916.591L24.4 915.591C25.2 914.391 25.7866 913.111 26.16 911.751C26.5333 910.418 26.72 909.125 26.72 907.871C26.72 906.191 26.4933 904.805 26.04 903.711C25.5866 902.618 24.9733 901.805 24.2 901.271C23.4533 900.765 22.6 900.511 21.64 900.511C20.5466 900.511 19.6666 900.818 19 901.431C18.3333 902.071 17.8133 902.898 17.44 903.911C17.0666 904.951 16.7333 906.085 16.44 907.311C16.1466 908.538 15.8266 909.751 15.48 910.951C15.1333 912.178 14.68 913.298 14.12 914.311C13.5866 915.351 12.8666 916.178 11.96 916.791C11.0533 917.431 9.86665 917.751 8.39998 917.751C7.03998 917.751 5.77331 917.378 4.59998 916.631C3.45331 915.885 2.51998 914.738 1.79998 913.191C1.10665 911.671 0.759981 909.711 0.759981 907.311Z" fill="#C13C69" fill-opacity="0.1"/>
<path d="M39 481.42L67 471.98L67 475.02L40.64 483.86L40.64 482.34L67 491.46L67 494.18L40.64 503.18L40.64 501.74L67 510.66L67 513.5L39 504.06L39 500.94L64 492.34L64 493.14L39 484.5L39 481.42ZM38.76 530.894C38.76 528.787 39.1067 526.827 39.8 525.014C40.52 523.227 41.52 521.667 42.8 520.334C44.1067 519.027 45.6133 518 47.32 517.254C49.0533 516.534 50.9467 516.174 53 516.174C55.0533 516.174 56.9333 516.534 58.64 517.254C60.3733 518 61.88 519.027 63.16 520.334C64.4667 521.667 65.4667 523.227 66.16 525.014C66.88 526.8 67.24 528.76 67.24 530.894C67.24 533 66.88 534.947 66.16 536.734C65.4667 538.52 64.48 540.067 63.2 541.374C61.92 542.707 60.4133 543.734 58.68 544.454C56.9467 545.2 55.0533 545.574 53 545.574C50.9467 545.574 49.0533 545.2 47.32 544.454C45.5867 543.734 44.08 542.707 42.8 541.374C41.52 540.067 40.52 538.52 39.8 536.734C39.1067 534.947 38.76 533 38.76 530.894ZM41.4 530.894C41.4 532.574 41.68 534.12 42.24 535.534C42.8267 536.974 43.64 538.214 44.68 539.254C45.7467 540.32 46.9733 541.147 48.36 541.734C49.7733 542.32 51.32 542.614 53 542.614C54.68 542.614 56.2133 542.32 57.6 541.734C59.0133 541.147 60.24 540.32 61.28 539.254C62.3467 538.214 63.16 536.974 63.72 535.534C64.3067 534.12 64.6 532.574 64.6 530.894C64.6 529.214 64.3067 527.654 63.72 526.214C63.16 524.774 62.3467 523.52 61.28 522.454C60.24 521.414 59.0133 520.587 57.6 519.974C56.2133 519.387 54.68 519.094 53 519.094C51.3467 519.094 49.8133 519.387 48.4 519.974C46.9867 520.587 45.7467 521.414 44.68 522.454C43.64 523.52 42.8267 524.774 42.24 526.214C41.68 527.654 41.4 529.214 41.4 530.894ZM39 552.208L67 552.208L67 554.648L45.16 567.448L45.16 566.168L67 578.848L67 581.288L39 581.288L39 578.448L62.56 578.448L62.56 579.128L42.56 567.448L42.56 566.048L62.56 554.288L62.56 555.048L39 555.048L39 552.208ZM39 585.932L67 598.732L67 601.652L39 614.452L39 611.332L65.28 599.572L65.28 600.772L39 589.012L39 585.932ZM46.48 590.972L48.88 591.852L48.88 608.132L46.48 609.012L46.48 590.972ZM39 619.083L67 619.083L67 621.523L42.68 640.843L42.68 639.563L67 639.563L67 642.483L39 642.483L39 640.043L63.32 620.763L63.32 622.043L39 622.043L39 619.083ZM39 662.091L67 662.091L67 665.051L39 665.051L39 662.091ZM39 674.162L67 674.162L67 676.602L42.68 695.922L42.68 694.642L67 694.642L67 697.562L39 697.562L39 695.122L63.32 675.842L63.32 677.122L39 677.122L39 674.162ZM39 717.169L67 717.169L67 729.249C67 732.369 66.3733 734.783 65.12 736.489C63.8667 738.223 62.0933 739.089 59.8 739.089C58.28 739.089 57 738.729 55.96 738.009C54.92 737.316 54.1333 736.356 53.6 735.129C53.0667 733.929 52.8 732.609 52.8 731.169L53.76 731.849C53.76 733.636 53.48 735.169 52.92 736.449C52.3867 737.756 51.5733 738.769 50.48 739.489C49.4133 740.209 48.08 740.569 46.48 740.569C44.1067 740.569 42.2667 739.689 40.96 737.929C39.6533 736.196 39 733.569 39 730.049L39 717.169ZM41.44 720.129L41.44 730.009C41.44 732.463 41.8533 734.343 42.68 735.649C43.5333 736.956 44.88 737.609 46.72 737.609C48.5333 737.609 49.8533 736.956 50.68 735.649C51.5333 734.343 51.96 732.463 51.96 730.009L51.96 719.809L54.4 719.809L54.4 729.049C54.4 731.289 54.8267 733.023 55.68 734.249C56.5333 735.503 57.8 736.129 59.48 736.129C61.1867 736.129 62.4533 735.503 63.28 734.249C64.1333 733.023 64.56 731.289 64.56 729.049L64.56 720.129L41.44 720.129ZM38.76 758.606C38.76 755.032 39.7867 752.219 41.84 750.166C43.8933 748.112 46.9333 747.086 50.96 747.086L67 747.086L67 750.046L51.08 750.046C47.7733 750.046 45.3333 750.792 43.76 752.286C42.1867 753.779 41.4 755.886 41.4 758.606C41.4 761.352 42.1867 763.472 43.76 764.966C45.3333 766.459 47.7733 767.206 51.08 767.206L67 767.206L67 770.086L50.96 770.086C46.9333 770.086 43.8933 769.059 41.84 767.006C39.7867 764.979 38.76 762.179 38.76 758.606ZM38.76 786.725C38.76 784.645 39.0933 782.645 39.76 780.725C40.4533 778.832 41.3333 777.365 42.4 776.325L44.68 777.485C43.72 778.472 42.9067 779.792 42.24 781.445C41.6 783.125 41.28 784.885 41.28 786.725C41.28 788.485 41.4933 789.912 41.92 791.005C42.3733 792.125 42.9733 792.939 43.72 793.445C44.4667 793.979 45.2933 794.245 46.2 794.245C47.2933 794.245 48.1733 793.925 48.84 793.285C49.5067 792.672 50.0267 791.859 50.4 790.845C50.8 789.832 51.1467 788.712 51.44 787.485C51.7333 786.259 52.04 785.032 52.36 783.805C52.7067 782.579 53.16 781.445 53.72 780.405C54.28 779.392 55.0133 778.565 55.92 777.925C56.8533 777.312 58.0667 777.005 59.56 777.005C60.9467 777.005 62.2133 777.365 63.36 778.085C64.5333 778.832 65.4667 779.965 66.16 781.485C66.88 783.005 67.24 784.952 67.24 787.325C67.24 788.899 67.0133 790.459 66.56 792.005C66.1333 793.552 65.5333 794.885 64.76 796.005L62.4 795.005C63.2 793.805 63.7867 792.525 64.16 791.165C64.5333 789.832 64.72 788.539 64.72 787.285C64.72 785.605 64.4933 784.219 64.04 783.125C63.5867 782.032 62.9733 781.219 62.2 780.685C61.4533 780.179 60.6 779.925 59.64 779.925C58.5467 779.925 57.6667 780.232 57 780.845C56.3333 781.485 55.8133 782.312 55.44 783.325C55.0667 784.365 54.7333 785.499 54.44 786.725C54.1467 787.952 53.8267 789.165 53.48 790.365C53.1333 791.592 52.68 792.712 52.12 793.725C51.5867 794.765 50.8667 795.592 49.96 796.205C49.0533 796.845 47.8667 797.165 46.4 797.165C45.04 797.165 43.7733 796.792 42.6 796.045C41.4533 795.299 40.52 794.152 39.8 792.605C39.1067 791.085 38.76 789.125 38.76 786.725ZM39 803.615L67 803.615L67 806.575L39 806.575L39 803.615ZM39 815.685L67 815.685L67 818.125L42.68 837.445L42.68 836.165L67 836.165L67 839.085L39 839.085L39 836.645L63.32 817.365L63.32 818.645L39 818.645L39 815.685ZM54.48 850.864L54.48 865.664L51.96 865.664L51.96 850.864L54.48 850.864ZM41.56 851.184L41.56 868.024L39 868.024L39 848.224L67 848.224L67 867.424L64.44 867.424L64.44 851.184L41.56 851.184ZM38.76 882.702C38.76 880.622 39.0933 878.622 39.76 876.702C40.4533 874.809 41.3333 873.342 42.4 872.302L44.68 873.462C43.72 874.449 42.9066 875.769 42.24 877.422C41.6 879.102 41.28 880.862 41.28 882.702C41.28 884.462 41.4933 885.889 41.92 886.982C42.3733 888.102 42.9733 888.915 43.72 889.422C44.4666 889.955 45.2933 890.222 46.2 890.222C47.2933 890.222 48.1733 889.902 48.84 889.262C49.5066 888.649 50.0266 887.835 50.4 886.822C50.8 885.809 51.1466 884.689 51.44 883.462C51.7333 882.235 52.04 881.009 52.36 879.782C52.7066 878.555 53.16 877.422 53.72 876.382C54.28 875.369 55.0133 874.542 55.92 873.902C56.8533 873.289 58.0666 872.982 59.56 872.982C60.9467 872.982 62.2133 873.342 63.36 874.062C64.5333 874.809 65.4667 875.942 66.16 877.462C66.88 878.982 67.24 880.929 67.24 883.302C67.24 884.875 67.0133 886.435 66.56 887.982C66.1333 889.529 65.5333 890.862 64.76 891.982L62.4 890.982C63.2 889.782 63.7866 888.502 64.16 887.142C64.5333 885.809 64.72 884.515 64.72 883.262C64.72 881.582 64.4933 880.195 64.04 879.102C63.5867 878.009 62.9733 877.195 62.2 876.662C61.4533 876.155 60.6 875.902 59.64 875.902C58.5467 875.902 57.6666 876.209 57 876.822C56.3333 877.462 55.8133 878.289 55.44 879.302C55.0666 880.342 54.7333 881.475 54.44 882.702C54.1466 883.929 53.8266 885.142 53.48 886.342C53.1333 887.569 52.68 888.689 52.12 889.702C51.5866 890.742 50.8666 891.569 49.96 892.182C49.0533 892.822 47.8666 893.142 46.4 893.142C45.04 893.142 43.7733 892.769 42.6 892.022C41.4533 891.275 40.52 890.129 39.8 888.582C39.1066 887.062 38.76 885.102 38.76 882.702ZM38.76 907.311C38.76 905.231 39.0933 903.231 39.76 901.311C40.4533 899.418 41.3333 897.951 42.4 896.911L44.68 898.071C43.72 899.058 42.9066 900.378 42.24 902.031C41.6 903.711 41.28 905.471 41.28 907.311C41.28 909.071 41.4933 910.498 41.92 911.591C42.3733 912.711 42.9733 913.525 43.72 914.031C44.4666 914.565 45.2933 914.831 46.2 914.831C47.2933 914.831 48.1733 914.511 48.84 913.871C49.5066 913.258 50.0266 912.445 50.4 911.431C50.8 910.418 51.1466 909.298 51.44 908.071C51.7333 906.845 52.04 905.618 52.36 904.391C52.7066 903.165 53.16 902.031 53.72 900.991C54.28 899.978 55.0133 899.151 55.92 898.511C56.8533 897.898 58.0666 897.591 59.56 897.591C60.9466 897.591 62.2133 897.951 63.36 898.671C64.5333 899.418 65.4666 900.551 66.16 902.071C66.88 903.591 67.24 905.538 67.24 907.911C67.24 909.485 67.0133 911.045 66.56 912.591C66.1333 914.138 65.5333 915.471 64.76 916.591L62.4 915.591C63.2 914.391 63.7866 913.111 64.16 911.751C64.5333 910.418 64.72 909.125 64.72 907.871C64.72 906.191 64.4933 904.805 64.04 903.711C63.5866 902.618 62.9733 901.805 62.2 901.271C61.4533 900.765 60.6 900.511 59.64 900.511C58.5466 900.511 57.6666 900.818 57 901.431C56.3333 902.071 55.8133 902.898 55.44 903.911C55.0666 904.951 54.7333 906.085 54.44 907.311C54.1466 908.538 53.8266 909.751 53.48 910.951C53.1333 912.178 52.68 913.298 52.12 914.311C51.5866 915.351 50.8666 916.178 49.96 916.791C49.0533 917.431 47.8666 917.751 46.4 917.751C45.04 917.751 43.7733 917.378 42.6 916.631C41.4533 915.885 40.52 914.738 39.8 913.191C39.1066 911.671 38.76 909.711 38.76 907.311Z" fill="#C13C69" fill-opacity="0.1"/>
<path d="M77 481.42L105 471.98L105 475.02L78.64 483.86L78.64 482.34L105 491.46L105 494.18L78.64 503.18L78.64 501.74L105 510.66L105 513.5L77 504.06L77 500.94L102 492.34L102 493.14L77 484.5L77 481.42ZM76.76 530.894C76.76 528.787 77.1067 526.827 77.8 525.014C78.52 523.227 79.52 521.667 80.8 520.334C82.1067 519.027 83.6133 518 85.32 517.254C87.0533 516.534 88.9467 516.174 91 516.174C93.0533 516.174 94.9333 516.534 96.64 517.254C98.3733 518 99.88 519.027 101.16 520.334C102.467 521.667 103.467 523.227 104.16 525.014C104.88 526.8 105.24 528.76 105.24 530.894C105.24 533 104.88 534.947 104.16 536.734C103.467 538.52 102.48 540.067 101.2 541.374C99.92 542.707 98.4133 543.734 96.68 544.454C94.9467 545.2 93.0533 545.574 91 545.574C88.9467 545.574 87.0533 545.2 85.32 544.454C83.5867 543.734 82.08 542.707 80.8 541.374C79.52 540.067 78.52 538.52 77.8 536.734C77.1067 534.947 76.76 533 76.76 530.894ZM79.4 530.894C79.4 532.574 79.68 534.12 80.24 535.534C80.8267 536.974 81.64 538.214 82.68 539.254C83.7467 540.32 84.9733 541.147 86.36 541.734C87.7733 542.32 89.32 542.614 91 542.614C92.68 542.614 94.2133 542.32 95.6 541.734C97.0133 541.147 98.24 540.32 99.28 539.254C100.347 538.214 101.16 536.974 101.72 535.534C102.307 534.12 102.6 532.574 102.6 530.894C102.6 529.214 102.307 527.654 101.72 526.214C101.16 524.774 100.347 523.52 99.28 522.454C98.24 521.414 97.0133 520.587 95.6 519.974C94.2133 519.387 92.68 519.094 91 519.094C89.3467 519.094 87.8133 519.387 86.4 519.974C84.9867 520.587 83.7467 521.414 82.68 522.454C81.64 523.52 80.8267 524.774 80.24 526.214C79.68 527.654 79.4 529.214 79.4 530.894ZM77 552.208L105 552.208L105 554.648L83.16 567.448L83.16 566.168L105 578.848L105 581.288L77 581.288L77 578.448L100.56 578.448L100.56 579.128L80.56 567.448L80.56 566.048L100.56 554.288L100.56 555.048L77 555.048L77 552.208ZM77 585.932L105 598.732L105 601.652L77 614.452L77 611.332L103.28 599.572L103.28 600.772L77 589.012L77 585.932ZM84.48 590.972L86.88 591.852L86.88 608.132L84.48 609.012L84.48 590.972ZM77 619.083L105 619.083L105 621.523L80.68 640.843L80.68 639.563L105 639.563L105 642.483L77 642.483L77 640.043L101.32 620.763L101.32 622.043L77 622.043L77 619.083ZM77 662.091L105 662.091L105 665.051L77 665.051L77 662.091ZM77 674.162L105 674.162L105 676.602L80.68 695.922L80.68 694.642L105 694.642L105 697.562L77 697.562L77 695.122L101.32 675.842L101.32 677.122L77 677.122L77 674.162ZM77 717.169L105 717.169L105 729.249C105 732.369 104.373 734.783 103.12 736.489C101.867 738.223 100.093 739.089 97.8 739.089C96.28 739.089 95 738.729 93.96 738.009C92.92 737.316 92.1333 736.356 91.6 735.129C91.0667 733.929 90.8 732.609 90.8 731.169L91.76 731.849C91.76 733.636 91.48 735.169 90.92 736.449C90.3867 737.756 89.5733 738.769 88.48 739.489C87.4133 740.209 86.08 740.569 84.48 740.569C82.1067 740.569 80.2667 739.689 78.96 737.929C77.6533 736.196 77 733.569 77 730.049L77 717.169ZM79.44 720.129L79.44 730.009C79.44 732.463 79.8533 734.343 80.68 735.649C81.5333 736.956 82.88 737.609 84.72 737.609C86.5333 737.609 87.8533 736.956 88.68 735.649C89.5333 734.343 89.96 732.463 89.96 730.009L89.96 719.809L92.4 719.809L92.4 729.049C92.4 731.289 92.8267 733.023 93.68 734.249C94.5333 735.503 95.8 736.129 97.48 736.129C99.1867 736.129 100.453 735.503 101.28 734.249C102.133 733.023 102.56 731.289 102.56 729.049L102.56 720.129L79.44 720.129ZM76.76 758.606C76.76 755.032 77.7867 752.219 79.84 750.166C81.8933 748.112 84.9333 747.086 88.96 747.086L105 747.086L105 750.046L89.08 750.046C85.7733 750.046 83.3333 750.792 81.76 752.286C80.1867 753.779 79.4 755.886 79.4 758.606C79.4 761.352 80.1867 763.472 81.76 764.966C83.3333 766.459 85.7733 767.206 89.08 767.206L105 767.206L105 770.086L88.96 770.086C84.9333 770.086 81.8933 769.059 79.84 767.006C77.7867 764.979 76.76 762.179 76.76 758.606ZM76.76 786.725C76.76 784.645 77.0933 782.645 77.76 780.725C78.4533 778.832 79.3333 777.365 80.4 776.325L82.68 777.485C81.72 778.472 80.9067 779.792 80.24 781.445C79.6 783.125 79.28 784.885 79.28 786.725C79.28 788.485 79.4933 789.912 79.92 791.005C80.3733 792.125 80.9733 792.939 81.72 793.445C82.4667 793.979 83.2933 794.245 84.2 794.245C85.2933 794.245 86.1733 793.925 86.84 793.285C87.5067 792.672 88.0267 791.859 88.4 790.845C88.8 789.832 89.1467 788.712 89.44 787.485C89.7333 786.259 90.04 785.032 90.36 783.805C90.7067 782.579 91.16 781.445 91.72 780.405C92.28 779.392 93.0133 778.565 93.92 777.925C94.8533 777.312 96.0667 777.005 97.56 777.005C98.9467 777.005 100.213 777.365 101.36 778.085C102.533 778.832 103.467 779.965 104.16 781.485C104.88 783.005 105.24 784.952 105.24 787.325C105.24 788.899 105.013 790.459 104.56 792.005C104.133 793.552 103.533 794.885 102.76 796.005L100.4 795.005C101.2 793.805 101.787 792.525 102.16 791.165C102.533 789.832 102.72 788.539 102.72 787.285C102.72 785.605 102.493 784.219 102.04 783.125C101.587 782.032 100.973 781.219 100.2 780.685C99.4533 780.179 98.6 779.925 97.64 779.925C96.5467 779.925 95.6667 780.232 95 780.845C94.3333 781.485 93.8133 782.312 93.44 783.325C93.0667 784.365 92.7333 785.499 92.44 786.725C92.1467 787.952 91.8267 789.165 91.48 790.365C91.1333 791.592 90.68 792.712 90.12 793.725C89.5867 794.765 88.8667 795.592 87.96 796.205C87.0533 796.845 85.8667 797.165 84.4 797.165C83.04 797.165 81.7733 796.792 80.6 796.045C79.4533 795.299 78.52 794.152 77.8 792.605C77.1067 791.085 76.76 789.125 76.76 786.725ZM77 803.615L105 803.615L105 806.575L77 806.575L77 803.615ZM77 815.685L105 815.685L105 818.125L80.68 837.445L80.68 836.165L105 836.165L105 839.085L77 839.085L77 836.645L101.32 817.365L101.32 818.645L77 818.645L77 815.685ZM92.48 850.864L92.48 865.664L89.96 865.664L89.96 850.864L92.48 850.864ZM79.56 851.184L79.56 868.024L77 868.024L77 848.224L105 848.224L105 867.424L102.44 867.424L102.44 851.184L79.56 851.184ZM76.76 882.702C76.76 880.622 77.0933 878.622 77.76 876.702C78.4533 874.809 79.3333 873.342 80.4 872.302L82.68 873.462C81.72 874.449 80.9066 875.769 80.24 877.422C79.6 879.102 79.28 880.862 79.28 882.702C79.28 884.462 79.4933 885.889 79.92 886.982C80.3733 888.102 80.9733 888.915 81.72 889.422C82.4666 889.955 83.2933 890.222 84.2 890.222C85.2933 890.222 86.1733 889.902 86.84 889.262C87.5066 888.649 88.0266 887.835 88.4 886.822C88.8 885.809 89.1466 884.689 89.44 883.462C89.7333 882.235 90.04 881.009 90.36 879.782C90.7066 878.555 91.16 877.422 91.72 876.382C92.28 875.369 93.0133 874.542 93.92 873.902C94.8533 873.289 96.0666 872.982 97.56 872.982C98.9467 872.982 100.213 873.342 101.36 874.062C102.533 874.809 103.467 875.942 104.16 877.462C104.88 878.982 105.24 880.929 105.24 883.302C105.24 884.875 105.013 886.435 104.56 887.982C104.133 889.529 103.533 890.862 102.76 891.982L100.4 890.982C101.2 889.782 101.787 888.502 102.16 887.142C102.533 885.809 102.72 884.515 102.72 883.262C102.72 881.582 102.493 880.195 102.04 879.102C101.587 878.009 100.973 877.195 100.2 876.662C99.4533 876.155 98.6 875.902 97.64 875.902C96.5467 875.902 95.6666 876.209 95 876.822C94.3333 877.462 93.8133 878.289 93.44 879.302C93.0666 880.342 92.7333 881.475 92.44 882.702C92.1466 883.929 91.8266 885.142 91.48 886.342C91.1333 887.569 90.68 888.689 90.12 889.702C89.5866 890.742 88.8666 891.569 87.96 892.182C87.0533 892.822 85.8666 893.142 84.4 893.142C83.04 893.142 81.7733 892.769 80.6 892.022C79.4533 891.275 78.52 890.129 77.8 888.582C77.1066 887.062 76.76 885.102 76.76 882.702ZM76.76 907.311C76.76 905.231 77.0933 903.231 77.76 901.311C78.4533 899.418 79.3333 897.951 80.4 896.911L82.68 898.071C81.72 899.058 80.9066 900.378 80.24 902.031C79.6 903.711 79.28 905.471 79.28 907.311C79.28 909.071 79.4933 910.498 79.92 911.591C80.3733 912.711 80.9733 913.525 81.72 914.031C82.4666 914.565 83.2933 914.831 84.2 914.831C85.2933 914.831 86.1733 914.511 86.84 913.871C87.5066 913.258 88.0266 912.445 88.4 911.431C88.8 910.418 89.1466 909.298 89.44 908.071C89.7333 906.845 90.04 905.618 90.36 904.391C90.7066 903.165 91.16 902.031 91.72 900.991C92.28 899.978 93.0133 899.151 93.92 898.511C94.8533 897.898 96.0666 897.591 97.56 897.591C98.9466 897.591 100.213 897.951 101.36 898.671C102.533 899.418 103.467 900.551 104.16 902.071C104.88 903.591 105.24 905.538 105.24 907.911C105.24 909.485 105.013 911.045 104.56 912.591C104.133 914.138 103.533 915.471 102.76 916.591L100.4 915.591C101.2 914.391 101.787 913.111 102.16 911.751C102.533 910.418 102.72 909.125 102.72 907.871C102.72 906.191 102.493 904.805 102.04 903.711C101.587 902.618 100.973 901.805 100.2 901.271C99.4533 900.765 98.6 900.511 97.64 900.511C96.5466 900.511 95.6666 900.818 95 901.431C94.3333 902.071 93.8133 902.898 93.44 903.911C93.0666 904.951 92.7333 906.085 92.44 907.311C92.1466 908.538 91.8266 909.751 91.48 910.951C91.1333 912.178 90.68 913.298 90.12 914.311C89.5866 915.351 88.8666 916.178 87.96 916.791C87.0533 917.431 85.8666 917.751 84.4 917.751C83.04 917.751 81.7733 917.378 80.6 916.631C79.4533 915.885 78.52 914.738 77.8 913.191C77.1066 911.671 76.76 909.711 76.76 907.311Z" fill="#C13C69" fill-opacity="0.1"/>
</svg>
