<svg width="303" height="166" viewBox="0 0 303 166" fill="none" xmlns="http://www.w3.org/2000/svg">
<path d="M-48.1749 6.31223L179.68 85.9332C191.7 90.1335 193.351 106.456 182.414 112.977L180.22 114.285C177.274 116.042 173.815 116.736 170.42 116.252L-59.8267 83.4127C-67.759 82.2814 -73.4016 75.1156 -72.641 67.1392L-68.0554 19.0487C-67.1313 9.35807 -57.3646 3.10101 -48.1749 6.31223Z" fill="#BE2D5E"/>
<path d="M449 166L-51 166L-51 69.9972C-51 60.306 -41.9477 53.1585 -32.5208 55.4063L89.64 84.5354C100.799 87.1962 112.332 87.9171 123.735 86.6667L449 51L449 166Z" fill="#C13C69"/>
</svg>
